<?xml version="1.0" encoding="UTF-8"?>
<svg width="350" height="60" version="1.1" viewBox="0 0 350 60" xmlns="http://www.w3.org/2000/svg"><path d="m29.306 56.408c-1.9735-1.9757-3.5882-3.6896-3.5882-3.8087 0-0.11911 0.44946-0.26979 0.99879-0.33485 4.893-0.5795 7.5848-6.438 4.5742-9.9552-0.91653-1.0708-3.1968-2.1719-4.808-2.3218-4.8829-0.45417-7.9357 5.9539-4.7959 10.067 0.3777 0.49481 0.68673 0.98741 0.68673 1.0947 0 0.12406-1.9326 0.19502-5.3115 0.19502h-5.3115v-5.3115c0-3.3789 0.071-5.3115 0.19502-5.3115 0.10726 0 0.59986 0.30902 1.0947 0.68673 2.41 1.8396 6.053 1.6571 8.3554-0.41866 1.8527-1.6703 2.2392-3.8771 1.141-6.5151-1.1258-2.7044-2.6663-3.8522-5.1795-3.8596-3.266-0.0093-6.0734 2.4844-6.511 5.7838-0.072 0.54302-0.19145 1.0247-0.26538 1.0704-0.0739 0.04566-1.8098-1.594-3.8574-3.6438l-3.723-3.7268 3.7266-3.7305c2.0496-2.0518 3.7728-3.6843 3.8293-3.6278 0.0565 0.05646 0.21039 0.63082 0.34207 1.2764 0.60836 2.9824 2.5539 4.9351 5.4507 5.4706 1.7982 0.33242 3.712-0.25184 4.8904-1.493 0.89992-0.94785 1.9218-3.5648 1.9167-4.9088-8e-3 -2.0429-1.202-3.8682-3.2416-4.9545-0.87652-0.4668-1.1978-0.52384-2.9508-0.52384-1.747 0-2.0773 0.0582-2.9508 0.51958-0.54098 0.28576-1.1522 0.70619-1.3584 0.93427-0.86599 0.95832-0.90393 0.75276-0.90393-4.8968v-5.3115h5.3115c3.3789 0 5.3115 0.07096 5.3115 0.19502 0 0.10726-0.30903 0.59986-0.68673 1.0947-2.5057 3.2827-0.99449 8.7234 2.7302 9.8295 1.4463 0.42952 2.3141 0.35995 4.0997-0.32867 2.1034-0.81117 3.3238-1.9733 3.8029-3.6214 1.0569-3.6355-1.7199-7.7039-5.5261-8.0968-0.59674-0.06158-1.0757-0.20913-1.0757-0.33135 0-0.12118 1.6607-1.8793 3.6904-3.9069l3.6904-3.6866 3.7118 3.7157c2.1672 2.1694 3.6556 3.8067 3.5766 3.9345-0.0744 0.12031-0.43649 0.21875-0.80474 0.21875-1.8432 0-4.378 1.7142-5.3503 3.6182-0.68017 1.3318-0.85156 3.6542-0.36393 4.931 0.35457 0.92844 1.4839 2.2168 2.2826 2.604 3.4239 1.6598 5.4595 1.6036 7.4216-0.20507 1.3018-1.1999 1.8666-2.455 1.973-4.3841 0.10557-1.9141-0.24006-3.1522-1.2487-4.4732-0.37244-0.48778-0.67717-0.93644-0.67717-0.99703 0-0.06058 2.3902-0.11017 5.3115-0.11017h5.3115v5.3115c0 2.9213-0.0441 5.3115-0.0979 5.3115-0.0539 0-0.54159-0.31876-1.0839-0.70835-2.6795-1.9251-6.306-1.6656-8.586 0.61441-2.061 2.061-2.1052 4.7834-0.12926 7.9657 1.3706 2.2075 4.53 2.8834 7.2724 1.5558 1.8426-0.89197 3.3047-2.9594 3.5674-5.0442 0.0766-0.60779 0.22842-1.1347 0.33741-1.171 0.109-0.03625 1.8795 1.6177 3.9344 3.6754l3.7362 3.7413-3.7701 3.7566c-2.0736 2.0661-3.8536 3.7051-3.9555 3.6421-0.10195-0.06297-0.2342-0.58784-0.2939-1.1663-0.20816-2.0168-1.6373-4.1137-3.4256-5.026-1.2454-0.63534-3.0355-0.90947-4.14-0.63399-2.0425 0.50941-3.1284 1.5035-4.1093 3.7619-0.79571 1.832-0.7874 3.6135 0.0238 5.0964 1.8546 3.3905 6.5131 4.1718 9.8706 1.6554 0.34442-0.25813 0.67639-0.46933 0.73771-0.46933 0.0613 0 0.11148 2.3902 0.11148 5.3115v5.3115h-5.3115c-2.9213 0-5.3115-0.04403-5.3115-0.09794 0-0.0539 0.30954-0.52876 0.68786-1.0554 0.95469-1.3288 1.2797-2.3805 1.2774-4.1338-2e-3 -1.1907-0.10529-1.7229-0.50338-2.5818-0.97251-2.0983-2.6255-3.3256-4.702-3.491-1.0055-0.08004-1.4381 0.0023-2.8408 0.54446-1.9322 0.74614-3.1081 1.7774-3.6528 3.2036-0.47889 1.2539-0.34496 3.6275 0.27241 4.828 1.0305 2.0038 3.033 3.4569 5.1019 3.7019 0.56463 0.06692 1.0796 0.20738 1.1444 0.31223 0.1276 0.20647-6.9788 7.4253-7.3096 7.4253-0.11039 0-1.8154-1.6165-3.7889-3.5921zm6.7866-0.38912c1.6513-1.6487 3.0023-3.0651 3.0023-3.1475 0-0.08248-0.19918-0.15-0.44262-0.15008-0.24345-8.3e-5 -0.97421-0.25164-1.6239-0.55901-1.4775-0.69899-3.0639-2.3783-3.6078-3.8193-0.31852-0.84377-0.41471-0.95984-0.52875-0.63798-0.93326 2.6342-2.9835 4.5854-5.1887 4.938-0.44272 0.07075-0.80494 0.18276-0.80494 0.24881 0 0.14313 5.9513 6.1247 6.0937 6.1247 0.0541 0 1.4495-1.3489 3.1008-2.9976zm-4.1935 1.0508c-1.9539-0.8874-2.456-3.2275-1.0388-4.8415 2.0162-2.2963 5.7811-0.27854 5.0947 2.7304-0.21618 0.94772-1.2413 2.0323-2.1628 2.2883-0.91189 0.25333-0.95386 0.2494-1.893-0.17716zm2.2842-0.71225c1.0739-0.55531 1.4852-2.07 0.87993-3.2404-0.41052-0.79386-1.0427-1.1825-1.9235-1.1825-1.0442 0-1.7996 0.44419-2.2038 1.2959-0.99109 2.0886 1.1914 4.1901 3.2474 3.127zm-2.0455-0.89619c-0.3998-0.31449-0.51833-0.58112-0.51833-1.166 0-1.3905 1.5037-2.0552 2.468-1.0909 0.52777 0.52777 0.60802 1.0785 0.25401 1.7432-0.52189 0.97987-1.362 1.1758-2.2036 0.51377zm1.4489-0.57589c0.48636-0.48635 0.48903-0.62526 0.0231-1.2006-0.32686-0.40364-0.43079-0.4298-0.88525-0.22274-0.59524 0.27121-0.69696 1.0165-0.20578 1.5077 0.40494 0.40495 0.59355 0.39006 1.0679-0.08434zm-12.436-4.4754c-1.66-3.2653-1.7507-4.7987-0.45952-7.7684 0.13257-0.30489 0.0448-0.2959-0.80589 0.08248-1.9451 0.86532-5.0389 0.65507-6.5876-0.44769-0.28939-0.20607-0.5789-0.37467-0.64334-0.37467-0.0645 0-0.11718 1.9475-0.11718 4.3279v4.3279h4.3443c2.3893 0 4.3105-0.06645 4.2692-0.14754zm-6.7956-0.63828c-1.0228-0.62363-1.4599-1.4899-1.3693-2.7141 0.12572-1.6998 1.3408-2.8607 2.9941-2.8607 1.174 0 2.0726 0.5773 2.6248 1.6863 0.55987 1.1245 0.45298 2.2125-0.306 3.1145-1.011 1.2015-2.699 1.5329-3.9435 0.77406zm2.7132-0.4962c0.73491-0.38003 1.1739-1.2285 1.1739-2.2689 0-0.66607-0.12311-0.93943-0.66885-1.4852-0.56531-0.5653-0.80788-0.66885-1.5669-0.66885-0.7223 0-1.033 0.11845-1.5874 0.6052-2.1544 1.8916 0.0977 5.1371 2.6492 3.8177zm-2.0938-0.94914c-0.38268-0.32917-0.53556-0.64692-0.53556-1.1131 0-0.7723 0.79491-1.5738 1.5609-1.5738 0.64187 0 1.4555 0.82822 1.4555 1.4816 0 0.618-0.97355 1.6659-1.5477 1.6659-0.21869 0-0.63861-0.2073-0.93317-0.46068zm1.6979-0.72709c0.24789-0.46317 0.1025-1.0899-0.28757-1.2396-0.76636-0.29408-1.5264 0.54438-1.2192 1.345 0.17375 0.45279 1.2483 0.37765 1.5068-0.10537zm36.783-1.3554v-4.3136l-1.2116 0.6251c-1.0074 0.51975-1.4799 0.63642-2.8033 0.6923-1.5551 0.06564-1.8892-7e-3 -3.9214-0.85702-0.34208-0.14302-0.34019-0.10769 0.0335 0.62488 0.98761 1.9359 0.92489 4.4923-0.1597 6.5092l-0.55538 1.0328h8.6179zm-4.9181 3.4776c-0.96518-0.65882-1.4163-1.6168-1.3266-2.817 0.14191-1.8989 1.3265-2.7932 3.5393-2.6717 0.77441 0.04252 2.0649 1.2756 2.3178 2.2148 0.22595 0.8391 0.0152 1.9482-0.49762 2.6188-0.89339 1.1682-2.8221 1.4815-4.0328 0.65513zm3.3872-0.91819c1.3324-1.4912 0.2035-3.9507-1.8133-3.9507-2.0115 0-3.0942 2.4159-1.7374 3.8769 0.6358 0.68464 1.1041 0.8529 2.1245 0.76343 0.68033-0.05971 1.0025-0.21545 1.4262-0.68968zm-2.4034-0.26604c-0.27049-0.13943-0.61309-0.50646-0.76132-0.81562-0.23295-0.48583-0.22704-0.65119 0.0435-1.2186 0.48968-1.0269 1.6485-1.1295 2.4949-0.2209 1.0885 1.1684-0.34832 2.9916-1.7771 2.2551zm1.3694-0.91628c0.40705-0.76058-0.41636-1.5994-1.1727-1.1946-0.43625 0.23348-0.52313 0.97195-0.15737 1.3377 0.36094 0.36095 1.103 0.28111 1.3301-0.14313zm-16.911-5.4733c3.1e-4 -0.02707-0.42826-0.04914-0.9527-0.04914h-0.95353l0.96548 1.9509 0.46996-0.92626c0.25848-0.50944 0.47034-0.94839 0.47079-0.97543zm0.7944-1.082c0.75519-0.38117 1.4649-1.2278 1.8096-2.1585 0.029-0.07819 0.44485-7e-3 0.92424 0.15883 0.5482 0.18925 1.1477 0.25427 1.6156 0.17521 2.181-0.36847 3.7568-3.0962 2.823-4.8866-0.16163-0.30991-0.29387-0.59346-0.29387-0.63014 0-0.03671 0.38438-0.23669 0.85419-0.44452 1.3428-0.59397 1.8016-1.4041 1.8016-3.1815s-0.45875-2.5876-1.8016-3.1815c-0.94599-0.41846-0.95944-0.44603-0.55911-1.1463 0.624-1.0916 0.11683-2.9939-1.0628-3.9865-1.1664-0.9815-2.4173-1.1271-3.9624-0.4612-0.22243 0.09584-0.39785-0.0819-0.65413-0.66275-0.78365-1.7762-3.0355-2.5017-4.9252-1.587-0.87665 0.42437-1.6905 1.4106-1.6905 2.0485 0 0.39966-0.15424 0.4009-1.0926 0.0093-1.5126-0.63198-3.4667 0.2413-4.3463 1.9423-0.37574 0.7266-0.38504 2.1234-0.019 2.8571 0.27933 0.55992 0.27844 0.56127-0.65816 0.99094-1.5383 0.70572-2.2633 2.4617-1.7711 4.2896 0.24003 0.89144 1.5315 2.2323 2.1501 2.2323 0.54604 0 0.63227 0.19549 0.30594 0.69352-0.38751 0.59141-0.39158 2.2456-7e-3 2.9886 0.43157 0.83456 1.5627 1.7689 2.4709 2.041 0.64217 0.19241 0.94708 0.17691 1.7615-0.08945 1.24-0.40556 1.153-0.42153 1.2979 0.23823 0.13883 0.63204 1.1344 1.6798 1.8754 1.9737 0.86718 0.34397 2.221 0.24843 3.1542-0.22261zm-2.4938-0.93276c-0.61226-0.24708-1.0538-0.97501-1.0538-1.7372 0-0.49333 0.17224-0.83667 0.66885-1.3333 0.36787-0.36786 0.81489-0.66885 0.99337-0.66885 0.64764 0 1.5212 0.62797 1.7992 1.2934 0.36025 0.86221 0.19052 1.529-0.5472 2.1498-0.60246 0.50694-1.13 0.59092-1.8604 0.29616zm1.7072-0.89532c0.37588-0.45289 0.13885-1.4912-0.43834-1.9202-0.49656-0.36907-0.56028-0.3737-1.0179-0.07389-0.93758 0.61433-0.92433 1.932 0.0226 2.249 0.6225 0.20839 1.1229 0.11939 1.4336-0.25494zm-8.1341-2.0187c-0.9648-1.007-0.56611-2.4888 0.81047-3.0122 1.5428-0.58657 2.8978 1.0445 2.1189 2.5506-0.6064 1.1727-2.0328 1.3974-2.9294 0.46159zm2.1097-0.41257c0.22791-0.25183 0.31826-0.6216 0.27639-1.1311-0.0604-0.73559-0.0853-0.75869-0.87982-0.8166-0.66668-0.04856-0.8755 0.023-1.1312 0.38803-0.39411 0.56267-0.39595 0.94175-7e-3 1.4966 0.38234 0.54584 1.2757 0.5782 1.7419 0.06308zm9.6743 0.35906c-0.53871-0.64022-0.67624-1.6661-0.31408-2.3427 0.10736-0.20062 0.50625-0.46741 0.88642-0.59287 1.3183-0.43508 2.8823 0.84228 2.5674 2.0969-0.36972 1.4731-2.1956 1.9608-3.1397 0.83871zm2.0818-0.31048c0.79693-0.72122 0.20937-2.0351-0.91008-2.0351-0.75123 0-1.0908 0.30483-1.0908 0.97918 0 1.1773 1.1791 1.7996 2.0009 1.0559zm-8.8094-2.1977c-0.39165-1.3428-1.1268-2.075-2.4873-2.4776-0.32293-0.09561-0.31983-0.14329 0.0484-0.74732 0.48647-0.79787 0.49239-1.8082 0.0159-2.7031l-0.36253-0.68085 0.90721-0.30276c0.98874-0.32997 1.8016-1.2785 1.8016-2.1023 0-0.56098 0.0174-0.5622 0.98361-0.06924 0.96929 0.4945 1.4879 0.49513 2.4532 0.0035 0.42123-0.21475 0.77834-0.36967 0.79358-0.34426 0.0152 0.02544 0.18443 0.4691 0.37599 0.98598 0.27239 0.73496 0.51408 1.0243 1.109 1.3279 0.4184 0.21345 0.89705 0.38809 1.0637 0.38809 0.38753 0 0.38231 0.05681-0.0905 0.98361-0.2164 0.42416-0.39345 0.95531-0.39345 1.1803 0 0.22502 0.17705 0.75616 0.39345 1.1803 0.21639 0.42416 0.39344 0.80793 0.39344 0.85282 0 0.04484-0.28308 0.13822-0.62906 0.20742-0.99222 0.19845-1.4692 0.62144-1.8455 1.6365-0.19216 0.51843-0.36795 0.9695-0.39065 1.0024-0.0227 0.03288-0.33896-0.12172-0.7028-0.34354-0.82812-0.50487-1.6444-0.51316-2.5991-0.02649-0.6817 0.34755-0.7499 0.35154-0.83809 0.04914zm2.9155-0.92707c0.45562 0.15697 0.83185 0.26719 0.83607 0.24493 4e-3 -0.02231 0.17608-0.37158 0.3819-0.77629 0.24241-0.47663 0.63822-0.85774 1.1237-1.082 0.61314-0.28319 0.72399-0.41772 0.60938-0.73959-0.18648-0.52376-0.17848-2.059 0.0135-2.5837 0.12518-0.34225 0.0657-0.44186-0.32235-0.53923-0.55222-0.13861-1.7001-1.3694-1.7001-1.823 0-0.22102-0.0982-0.26612-0.34426-0.15803-0.61809 0.27154-1.8007 0.32941-2.4077 0.1178-0.56993-0.19868-0.61102-0.17462-0.99834 0.58459-0.27326 0.53564-0.64389 0.89922-1.1456 1.1239l-0.74169 0.33206 0.284 0.852c0.25002 0.75007 0.24811 0.94333-0.0159 1.6154l-0.29988 0.76343 0.80183 0.44757c0.46754 0.26096 0.95482 0.74463 1.1688 1.1601l0.36697 0.71255 0.78065-0.26896c0.6674-0.22994 0.90083-0.22756 1.609 0.0165zm-1.5258-2.9341c-0.26557-0.26557-0.48286-0.56347-0.48286-0.66199 0-0.37073 0.83034-1.2158 1.1946-1.2158 0.49454 0 1.166 0.67973 1.166 1.1803 0 0.46639-0.65985 1.1803-1.0909 1.1803-0.16721 0-0.52131-0.21729-0.78689-0.48287zm1.1946-0.50935c0.18062-0.29225-0.27496-0.77569-0.60987-0.64717-0.4312 0.16547-0.3497 0.85251 0.10113 0.85251 0.21 0 0.43894-0.09236 0.50873-0.20534zm-10.072 1.1115c-0.43118-0.37089-0.54748-0.64016-0.54748-1.2676 0-1.1464 0.65915-1.8025 1.811-1.8025 1.5755 0 2.5588 1.5815 1.6675 2.6819-0.7825 0.96602-2.0622 1.1355-2.931 0.38817zm2.2066-0.60211c0.58709-0.58708 0.59337-0.70064 0.0751-1.3595-0.75642-0.96163-2.1496-0.53258-2.1496 0.66199 0 1.1643 1.2032 1.5688 2.0745 0.69746zm14.46 0.53204c-0.93144-0.85952-0.97198-1.4873-0.14915-2.3101 0.56689-0.56689 0.83528-0.68985 1.5058-0.68985 1.6142 0 2.3371 1.6693 1.2715 2.9357-0.69049 0.8206-1.7797 0.84723-2.6281 0.06424zm2.1538-0.44262c1.1111-1.1111-0.41542-2.5794-1.7267-1.661-0.857 0.60027-0.2614 2.0544 0.84148 2.0544 0.27049 0 0.66885-0.17705 0.88524-0.39345zm-4.0326-4.9456c-0.75204-0.20567-1.0822-0.66186-1.0822-1.4952 0-2.4318 3.0577-2.9468 3.64-0.61317 0.12934 0.51836-0.27133 1.5826-0.69421 1.8439-0.47875 0.2959-1.3149 0.41454-1.8636 0.26446zm1.5089-0.8882c0.44136-0.39943 0.46803-1.3085 0.0506-1.726-0.45885-0.45885-1.3816-0.39114-1.7453 0.12807-0.36461 0.52055-0.39944 1.3581-0.0702 1.6874 0.34093 0.34092 1.3455 0.28998 1.7648-0.08945zm-13.789 0.40643c-1.0693-0.89972-0.69384-2.5804 0.67749-3.033 1.7317-0.57149 3.1749 1.8099 1.9303 3.1852-0.50467 0.55764-1.8582 0.47868-2.6078-0.15213zm2.0344-0.20027c0.41943-0.16096 0.40985-1.4127-0.0144-1.8815-0.66279-0.73238-2.0351-0.22482-2.0351 0.7527 0 0.90524 1.0808 1.5005 2.0495 1.1288zm3.9308-2.1232c-0.89159-0.89159-0.92533-1.859-0.0938-2.6905 0.9333-0.9333 2.5136-0.60776 2.9363 0.60486 0.31652 0.90796-0.13227 2.0345-0.98643 2.4762-0.80052 0.41396-1.1185 0.34707-1.8561-0.39055zm1.9377-0.47352c0.52309-0.44922 0.45127-1.5325-0.1267-1.9112-0.57434-0.37632-1.4195-0.21152-1.7112 0.3337-0.31356 0.58589-0.023 1.5054 0.57461 1.8185 0.54262 0.28431 0.68284 0.25757 1.2633-0.24097zm-9.1771 16.796 0.60981-0.1312-1.4163-1.4571-0.2648 0.88524c-0.14564 0.48688-0.36695 1.0096-0.49181 1.1615-0.1803 0.21946-0.10559 0.21421 0.36316-0.02544 0.3246-0.16598 0.86458-0.36082 1.2-0.43298zm4.5183 0.3022c-0.0684-0.11071-0.26997-0.14533-0.44794-0.07702-0.28445 0.1092-0.27774 0.14081 0.0555 0.2618 0.43982 0.15969 0.56803 0.09933 0.39246-0.18475zm8.1178 0.19941c0.21346-0.13531 0.20733-0.18747-0.0329-0.27965-0.16241-0.06227-0.3441 0.01383-0.40376 0.16935-0.12164 0.317 0.0444 0.35896 0.43666 0.11025zm5.3429-0.81511c-0.18386-0.54311-0.37549-1.0287-0.42584-1.079-0.0504-0.0503-0.37809 0.20408-0.72831 0.56542l-0.63676 0.65698 0.90117 0.25231c0.49565 0.13878 0.94838 0.3287 1.0061 0.42205 0.23771 0.38462 0.19929 0.11466-0.11634-0.81772zm-32.261-3.3896c2.7e-4 -0.7637 1.0846-2.7666 1.9867-3.6699 0.47606-0.47665 1.4305-1.1322 2.1209-1.4569l1.2553-0.59022-1.0081-0.37604c-1.9656-0.73323-3.973-3.1008-4.3197-5.0947l-0.13375-0.76934-6.2904 6.3012 3.0445 3.0492c1.6744 1.6771 3.1119 3.0492 3.1944 3.0492 0.0825 0 0.14999-0.19918 0.15007-0.44262zm-3.1003-3.0973c-2.5605-1.5612-1.4652-5.506 1.5295-5.5085 1.2191-1e-3 2.152 0.54726 2.712 1.5938 0.77385 1.4464 0.36224 2.8426-1.1393 3.8645-0.83851 0.57068-2.2121 0.59293-3.1022 0.0503zm2.9235-0.6476c1.3753-0.9255 1.3753-2.8962 0-3.8217-2.249-1.5134-4.9564 1.243-3.2329 3.2914 0.90697 1.0779 2.1228 1.2773 3.2329 0.53029zm-1.9814-0.58872c-0.26722-0.13522-0.62132-0.488-0.78689-0.78398-0.26984-0.48239-0.26995-0.59368-1e-3 -1.0743 0.16496-0.29488 0.53522-0.66822 0.82281-0.82964 0.46902-0.26325 0.59466-0.25926 1.2195 0.03869 1.148 0.54744 1.2188 2.0359 0.12371 2.6022-0.69358 0.35866-0.7578 0.36085-1.378 0.04705zm1.4486-0.97786c0.33711-0.53838-0.087-1.0328-0.88584-1.0328-0.58953 0-0.67464 0.0661-0.73202 0.56882-0.0367 0.3217 0.0488 0.64296 0.19672 0.73948 0.39986 0.26081 1.18 0.10955 1.4211-0.27552zm49.266-3.4256-3.0813-3.0813-0.23349 0.86711c-0.56715 2.1062-2.0728 3.8902-3.976 4.7109-0.62028 0.26748-1.1293 0.5387-1.1311 0.60272-2e-3 0.06401 0.3286 0.21759 0.73434 0.34127 1.7914 0.54604 3.699 2.6339 4.3021 4.7086l0.31509 1.0839 6.1517-6.1517zm-3.2632 5.6398c-1.9001-1.1585-1.9001-3.9584 0-5.1169 0.81643-0.49778 2.1985-0.51 3.0983-0.02742 0.93249 0.50011 1.6381 1.8414 1.5067 2.8639-0.27197 2.1153-2.8124 3.3733-4.605 2.2804zm2.9235-0.6476c0.88749-0.59723 1.2428-1.6295 0.90926-2.6414-0.2953-0.89577-1.3116-1.6301-2.256-1.6301-1.985 0-3.1274 2.266-1.8862 3.7412 0.90697 1.0779 2.1228 1.2773 3.2328 0.53029zm-1.9814-0.58872c-0.74647-0.37772-1.121-1.1721-0.84171-1.7852 0.32228-0.70731 1.117-1.1815 1.7246-1.029 1.5039 0.37745 1.7198 2.1094 0.35363 2.837-0.53381 0.28431-0.6332 0.28248-1.2365-0.02277zm1.4486-0.97786c0.33711-0.53838-0.087-1.0328-0.88584-1.0328-0.58952 0-0.67463 0.0661-0.73202 0.56882-0.0367 0.3217 0.0487 0.64296 0.19672 0.73948 0.39986 0.26081 1.18 0.10955 1.4211-0.27552zm-15.031 3.541c2e-3 -0.08121-0.0855-0.14754-0.19371-0.14754-0.1082 0-0.19537 0.19918-0.19371 0.44262 2e-3 0.35793 0.0395 0.38616 0.19371 0.14754 0.10488-0.1623 0.19205-0.36148 0.19371-0.44262zm-19.579 0.03555c-0.18499-0.29932-0.48055-0.20789-0.35825 0.11083 0.062 0.16168 0.19349 0.24408 0.29212 0.18312 0.0986-0.06099 0.12838-0.19323 0.0661-0.29394zm-2.4506-3.9177v-0.98045l-0.7377 0.3701c-0.40574 0.20355-0.86399 0.40652-1.0183 0.45103-0.16076 0.04635 0.13335 0.29516 0.68852 0.58244 0.53303 0.27582 0.99128 0.51406 1.0183 0.52942 0.0271 0.01534 0.0492-0.41329 0.0492-0.95253zm25.046-0.50424c-0.5213-0.26448-0.96995-0.48125-0.997-0.4817-0.027-4.61e-4 -0.0492 0.4433-0.0492 0.9861v0.98692l1.994-1.0104zm-22.612-3.3936c0.0533-0.08632 0.0266-0.27085-0.0595-0.41007-0.11407-0.18458-0.1855-0.14207-0.26369 0.15694-0.10346 0.39567 0.12463 0.57434 0.32314 0.25313zm19.426-0.36929c-0.17145-0.29484-0.20984-0.30334-0.21475-0.04752-6e-3 0.33129 0.20049 0.62958 0.33992 0.49016 0.046-0.046-0.0103-0.24516-0.12517-0.44262zm-18.221-5.1014c-1.54-0.56836-1.4635-0.60628-1.1227 0.55648l0.30434 1.0384 1.4086-1.377zm17.962 0.37122 0.38965-1.0269-0.51985 0.26159c-0.28592 0.14388-0.77595 0.32315-1.089 0.39837l-0.5691 0.13678 0.65401 0.67476c0.35971 0.37113 0.6744 0.65398 0.6993 0.62855 0.0249-0.02544 0.22063-0.50834 0.43494-1.0731zm-5.3057-0.86631c-0.39224-0.24865-0.5583-0.2067-0.43666 0.11025 0.0596 0.15546 0.24135 0.23166 0.40376 0.16935 0.24023-0.09213 0.24636-0.14435 0.0329-0.27965zm-8.0329 0.0244c0-0.24648-0.20876-0.24648-0.59016 0-0.23861 0.15421-0.21038 0.19128 0.14754 0.19371 0.24344 0.0012 0.44262-0.0855 0.44262-0.19371zm-12.586-3.3137c1.4703-0.0582 1.8858 0.0023 2.9343 0.42562 1.023 0.4132 1.1982 0.44019 1.0784 0.16613-1.0939-2.5026-1.1487-4.664-0.16523-6.524 0.31464-0.59508 0.60208-1.1484 0.63877-1.2295 0.0367-0.08115-1.8882-0.14754-4.2776-0.14754h-4.3443v8.6272l1.2114-0.6251c1.0339-0.53352 1.4623-0.63502 2.9242-0.69285zm-2.3651-1.4568c-2.8163-1.9224-0.9313-6.2498 2.3587-5.4147 1.0321 0.26196 2.0778 1.409 2.2583 2.477 0.18116 1.0723-0.41843 2.4383-1.3084 2.9809-0.91888 0.56022-2.4539 0.54018-3.3086-0.04319zm3.3872-0.91819c0.95613-1.0701 0.62412-3.0055-0.62653-3.6523-1.6595-0.85817-3.5474 0.27284-3.5474 2.1252 0 0.60126 0.7558 1.7255 1.383 2.0571 0.82287 0.43508 2.1546 0.18217 2.791-0.53003zm-2.4035-0.26608c-1.1424-0.58886-1.1434-2.2274-2e-3 -2.7003 0.663-0.27462 1.2437-0.1293 1.7789 0.44519 1.0885 1.1684-0.34832 2.9916-1.7772 2.2551zm1.3692-0.82272c0.30092-0.3626 0.0951-1.0309-0.39893-1.2953-0.81453-0.43592-1.5906 0.68518-0.93094 1.3448 0.32357 0.32357 1.0424 0.29677 1.3299-0.04957zm36.795 0.48236v-4.3279h-8.5838l0.67847 1.3669c0.5957 1.2001 0.67923 1.5541 0.68462 2.9016 5e-3 1.1931-0.10306 1.8027-0.48442 2.7385l-0.49055 1.2037 0.90114-0.41684c0.7371-0.34096 1.2772-0.41684 2.9667-0.41684 1.9544 0 2.1238 0.03323 3.1475 0.61748 0.59508 0.3396 1.1041 0.6273 1.1312 0.63934 0.0271 0.01208 0.0492-1.9257 0.0492-4.306zm-4.8706 1.5748c-2.5773-1.5714-1.4106-5.5748 1.6248-5.5748 1.174 0 2.0726 0.57731 2.6248 1.6863 0.55987 1.1245 0.45298 2.2125-0.30599 3.1145-1.011 1.2015-2.699 1.5329-3.9435 0.77406zm2.7132-0.4962c0.73491-0.38003 1.1739-1.2285 1.1739-2.2689 0-0.66608-0.12311-0.93943-0.66885-1.4852-0.5674-0.5674-0.80655-0.66885-1.5767-0.66885-0.751 0-1.0274 0.11044-1.6003 0.63934-2.1094 1.9476 0.11934 5.1035 2.6719 3.7836zm-1.9105-0.72232c-0.97686-0.47227-0.99465-1.9244-0.0318-2.5988 0.64081-0.44884 1.2886-0.38993 1.8464 0.16793 0.64966 0.64966 0.61745 1.38-0.0922 2.0896-0.60377 0.60377-1.012 0.68464-1.7224 0.34118zm1.5569-1.0679c0.20634-0.45285 0.18096-0.55836-0.21052-0.87536-0.55305-0.44783-1.2819-0.23955-1.376 0.3932-0.10562 0.71061 0.11023 0.99707 0.75131 0.99707 0.45688 0 0.65668-0.12319 0.83516-0.51491zm-16.965 4.7936c-3.1e-4 -0.02707-0.21171-0.46481-0.46947-0.97282l-0.46864-0.92365-1.0094 1.9457h0.97419c0.5358 0 0.97382-0.02207 0.97336-0.04914zm0.39959-7.896c0.95957-1.3362 2.3714-2.2168 4.5095-2.8128 0.18217-0.05078-0.8314-1.1963-2.8033-3.1682l-3.0886-3.0886-6.1517 6.1517 1.0595 0.30888c2.1366 0.62293 4.0418 2.3522 4.8113 4.3672l0.34609 0.90622 0.33424-0.88052c0.18383-0.48429 0.62616-1.287 0.98297-1.7839zm-2.4798-1.477c-1.9539-0.88741-2.456-3.2275-1.0388-4.8415 2.0162-2.2963 5.7811-0.27854 5.0947 2.7304-0.21618 0.94772-1.2413 2.0323-2.1628 2.2883-0.91189 0.25333-0.95386 0.2494-1.893-0.17715zm2.2842-0.71225c1.0739-0.55532 1.4852-2.07 0.87993-3.2404-0.41052-0.79386-1.0427-1.1825-1.9235-1.1825-1.0442 0-1.7996 0.4442-2.2038 1.2959-0.99109 2.0886 1.1914 4.1901 3.2474 3.127zm-2.0455-0.89619c-0.39546-0.31108-0.51833-0.58273-0.51833-1.146 0-1.4268 1.484-2.0949 2.468-1.1109 0.52777 0.52777 0.60802 1.0785 0.25401 1.7432-0.52189 0.97988-1.362 1.1758-2.2036 0.51377zm1.4489-0.57589c0.48636-0.48635 0.48903-0.62526 0.0231-1.2006-0.32686-0.40364-0.43079-0.4298-0.88525-0.22273-0.59524 0.27121-0.69696 1.0165-0.20578 1.5077 0.40494 0.40494 0.59355 0.39005 1.0679-0.08431zm40.8 44.177c-2.4504-0.55424-4.366-2.0231-5.22-4.0027-0.84526-1.9593-1.2864-5.9604-1.0588-9.6033l0.14016-2.2432h7.6333v2.1542c0 2.477 0.27379 4.0212 0.80764 4.555 0.28799 0.288 0.65831 0.37269 1.6296 0.37269 1.5564 0 2.0556-0.344 2.2942-1.5809 0.0932-0.48296 0.17328-7.4511 0.17799-15.485l9e-3 -14.607h8.9032l-0.11031 14.508c-0.10864 14.289-0.24132 17.471-0.8371 20.078-0.6665 2.9164-2.2187 4.8046-4.5814 5.5731-1.1091 0.36075-1.8644 0.43533-4.9482 0.48855-2.5858 0.04461-3.9866-0.0158-4.839-0.20855zm18.347-0.43938c-0.0721-0.07214-0.13115-9.1016-0.13115-20.066v-19.934h17.902v8.459h-9.4517l0.0537 3.4918 0.0537 3.4918 9.1475 0.10572v8.0583h-9.2546l0.107 7.377 9.3443 0.10548v9.0421h-8.8197c-4.8508 0-8.8787-0.05902-8.9508-0.13115zm20.918-19.931v-20.09l7.7213 0.06093c7.5555 0.05962 7.7457 0.07076 8.8588 0.51883 1.6539 0.66576 2.6685 1.5281 3.4263 2.9123 0.98998 1.8081 1.292 3.5352 1.3025 7.447 0.0129 4.8235-0.33803 6.1787-1.9937 7.699l-0.88622 0.81378 0.80261 0.50667c2.09 1.3193 2.5004 2.7592 2.5037 8.7838 2e-3 4.7229-0.12905 5.7094-1.016 7.6136-0.67191 1.4425-2.1324 2.6989-3.7711 3.2439-1.2453 0.41424-1.6883 0.43888-9.1285 0.50786l-7.8197 0.0725zm12.083 11.524c0.96684-0.40396 1.1586-1.1849 1.0608-4.3187-0.11656-3.7352-0.35148-4.061-2.9285-4.061h-1.7564v8.6557h1.4817c0.82665 0 1.7738-0.12204 2.1424-0.27604zm-0.13455-15.566c0.6193-0.43378 0.83595-1.4648 0.8372-3.9841 1e-3 -2.3871-0.25266-3.39-0.95292-3.7647-0.21844-0.11691-1.0669-0.21255-1.8855-0.21255h-1.4884v8.2623h1.53c1.0547 0 1.6634-0.0934 1.9596-0.30088zm12.445 4.0386v-20.066h17.705v8.459h-9.2459v7.082h9.2459v8.0656h-9.2459v7.4754h9.2459v9.0492h-17.705zm21.049 0v-20.066h8.459v31.082h8.459v9.0492h-16.918zm24.247 19.855c-1.0242-0.311-1.4275-1.3331-1.4275-3.6179v-1.8767h1.7705v1.4593c0 1.8129 0.0992 2.0817 0.76857 2.0817 0.87354 0 1.0019-0.30801 1.0019-2.4041v-1.9319l-0.92716-0.63529c-0.50993-0.3494-1.2665-0.94512-1.6812-1.3238-0.67448-0.61586-0.77498-0.83384-0.95233-2.0656-0.39028-2.7106 0.15842-4.9764 1.3113-5.4147 0.84984-0.3231 2.2898-0.22568 2.992 0.20246 0.86389 0.52671 1.0527 1.1261 0.9859 3.1293l-0.0564 1.6896h-1.5738l-0.0984-1.377c-0.0541-0.75737-0.16999-1.4877-0.25751-1.623-0.20238-0.31269-0.96815-0.3186-1.2769-0.0093-0.29614 0.29614-0.31764 3.1784-0.0278 3.72 0.11455 0.21407 0.8286 0.78682 1.5868 1.2728 1.834 1.1755 2.0061 1.5908 1.9064 4.5984-0.0794 2.3927-0.37664 3.4182-1.1269 3.8868-0.53498 0.3341-2.1654 0.46798-2.9176 0.23957zm27.505 0.07795c-0.26257-0.05553-0.6741-0.22982-0.91454-0.38736-0.91229-0.59776-0.96874-1.0891-0.96874-8.4312v-6.8852h1.9672l0.0984 6.5902c0.0541 3.6246 0.16998 6.7008 0.25751 6.8361 0.0875 0.13525 0.41427 0.24591 0.7261 0.24591 0.31181 0 0.63856-0.11071 0.72609-0.24591 0.0875-0.13525 0.20342-3.2115 0.25751-6.8361l0.0984-6.5902 0.93441-0.05995 0.93444-0.05994v6.9023c0 7.4616-0.0546 7.9068-1.0503 8.5592-0.51112 0.3349-2.2333 0.53832-3.0664 0.3622zm13.686-0.05902c-1.6287-0.51983-1.8004-1.3029-1.7911-8.1693 6e-3 -4.6655 0.0565-5.6142 0.32803-6.2007 0.5679-1.2268 1.0026-1.4714 2.6153-1.4714 1.7138 0 2.0776 0.24476 2.5931 1.7444 0.2978 0.86633 0.34666 1.7496 0.34428 6.2228-3e-3 6.9809-0.25487 7.76-2.5683 7.9676-0.52761 0.0474-1.2122 0.0058-1.5214-0.09329zm1.8613-2.5136c0.23422-0.61067 0.30763-9.626 0.0866-10.632-0.10014-0.45615-0.2784-0.66538-0.64516-0.75743-0.71755-0.18009-0.9793 0.27749-1.1401 1.9931-0.21202 2.2625-0.0247 8.9757 0.26487 9.4951 0.3613 0.648 1.1688 0.5926 1.4338-0.0984zm101.33 2.493c-1.2388-0.37919-1.314-0.82859-1.314-7.8536 0-8.1211 0.0223-8.1752 3.3126-8.0305 2.4853 0.10932 2.5748 0.38876 2.5709 8.0305-4e-3 7.5246-0.11363 7.864-2.5833 7.9871-0.73311 0.0366-1.6269-0.02345-1.9862-0.13349zm2.3395-2.3719c0.1521-0.2842 0.22471-2.0875 0.22471-5.5801 0-5.4972-0.0763-6-0.91023-6-0.95799 0-1.0008 0.25642-1.0008 6 0 5.7436 0.0428 6 1.0008 6 0.26914 0 0.55426-0.17466 0.68552-0.4199zm-126.76 2.2619c-0.0754-0.0754-0.13706-3.6217-0.13706-7.8808v-7.7438l4.8197 0.11048v1.9672l-2.8524 0.1157v4.4901l1.4262 0.05774 1.4262 0.05785 0.06 0.93443 0.0599 0.93442h-2.9724v4.918h2.9714l-0.0595 1.0328-0.0595 1.0328-2.2728 0.05507c-1.25 0.03031-2.3344-7e-3 -2.4098-0.0819zm33.246 0c-0.0754-0.0754-0.13706-3.6217-0.13706-7.8808v-7.7438l4.8197 0.11048v1.9672l-2.8525 0.1157v4.4901l1.4262 0.05774 1.4262 0.05785 0.0599 0.93443 0.06 0.93442h-2.9724v4.918h2.9714l-0.0595 1.0328-0.0595 1.0328-2.2728 0.05507c-1.25 0.03031-2.3345-7e-3 -2.4098-0.0819zm29.664-0.31739c-0.0592-0.24344-0.0831-3.7623-0.053-7.8197l0.0548-7.377h4.918v1.9672l-2.9508 0.11246 0.061 2.2469 0.061 2.2469 2.8289 0.11502v1.7705l-2.8525 0.1157v4.8836l1.4262 0.05774c1.4086 0.05704 1.427 0.06482 1.4908 0.62255 0.0356 0.31061 0.0117 0.77537-0.053 1.0328-0.11547 0.46026-0.15651 0.46803-2.4706 0.46803-2.2773 0-2.3566-0.01429-2.4609-0.44262zm25.614 0.31739c-0.0754-0.0754-0.13707-3.6217-0.13707-7.8808v-7.7438l4.8197 0.11048v1.9672l-2.8524 0.1157v4.4901l1.4262 0.05774 1.4262 0.05785 0.06 0.93443 0.0599 0.93442h-2.9724v4.918h2.9714l-0.0595 1.0328-0.0595 1.0328-2.2728 0.05507c-1.25 0.03031-2.3344-7e-3 -2.4098-0.0819zm12.74-0.12121c-0.0521-0.13554-0.0713-3.6544-0.043-7.8197l0.0516-7.5732h4.918v1.9672l-2.9508 0.1968v4.4267l2.8128-4.64e-4 0.0716 0.89912c0.0394 0.49452 0.0335 0.93714-0.013 0.9836-0.0465 0.04647-0.6894 0.08446-1.4287 0.08446h-1.3443v2.2623c0 1.2443-0.0221 2.3287-0.0491 2.4098-0.0271 0.0812 0.59262 0.17354 1.377 0.20534l1.4262 0.05785v2.1467h-2.3668c-1.7148 0-2.3929-0.06784-2.4614-0.24645zm-116.67-0.8847c0.0646-0.51393 0.38308-3.6787 0.70785-7.0328 0.32478-3.3541 0.64214-6.4303 0.70527-6.8361l0.11478-0.7377h3.0951l0.10619 0.63935c0.1511 0.91032 1.2887 13.505 1.2887 14.267 0 0.62875-9e-3 0.63447-0.96682 0.63447h-0.96683l-0.12485-1.5246c-0.0687-0.83852-0.14261-1.7459-0.16433-2.0164-0.0332-0.4138-0.15202-0.50122-0.74904-0.55119-0.70731-0.05925-0.70997-0.05646-0.83606 0.86352-0.0696 0.5076-0.12771 1.2425-0.12918 1.6332-6e-3 1.4266-0.13447 1.5955-1.2191 1.5955h-0.97912zm3.5643-6.0984c-0.0585-0.51393-0.193-1.9436-0.29866-3.1772-0.10572-1.2335-0.22271-2.2733-0.26008-2.3106-0.0638-0.06378-0.5348 5.3322-0.53055 6.078 1e-3 0.25181 0.16229 0.34426 0.5989 0.34426 0.59593 0 0.59676-0.0012 0.49039-0.93442zm4.0274 0.35504v-6.6777l-1.8688-0.1199v-1.9672h5.7049v1.9672l-1.8688 0.1199v13.355h-1.9672zm20.506-1.0436 0.0515-7.7213h2.193c2.4377 0 2.8079 0.15728 3.3423 1.4199 0.61884 1.4621 0.21965 6.5473-0.51396 6.5473-0.13328 0-0.10491 0.20676 0.0766 0.55757 0.15857 0.30666 0.38248 1.5239 0.49756 2.7049 0.11501 1.181 0.25394 2.6121 0.3086 3.1801l0.0993 1.0328h-0.98158c-1.1695 0-1.0991 0.1754-1.3689-3.4102-0.10456-1.3888-0.29394-2.6502-0.42098-2.8033-0.12701-0.15306-0.48569-0.27828-0.79703-0.27828h-0.56607v6.4918h-1.9718zm3.4941-0.93442c0.34061-0.34061 0.39345-0.65573 0.39345-2.3466 0-2.2268-0.20224-2.6352-1.2542-2.5329l-0.61467 0.05983-0.0549 2.6066-0.0548 2.6066h0.59586c0.33358 0 0.76907-0.17319 0.98931-0.39345zm10.08 0.93442 0.0515-7.7213 1.8689-0.05251c3.4895-0.09805 3.9804 0.60631 3.8757 5.5607-0.0888 4.1989-0.55848 5.0164-2.8823 5.0164h-0.99337v4.918h-1.9718zm3.6589-0.04914c0.18107-0.54143 0.23818-1.4853 0.18308-3.0258-0.069-1.9295-0.13256-2.2773-0.4597-2.5165-0.20879-0.15268-0.601-0.2517-0.87159-0.22007l-0.49199 0.05751-0.054 3.3073-0.054 3.3072 0.74253-0.06134c0.67224-0.05553 0.76741-0.13581 1.0057-0.84823zm8.8844 7.1299c0-0.97527 1.3752-14.542 1.4935-14.733 0.17097-0.27663 3.0302-0.20501 3.1305 0.07842 0.0479 0.13525 0.35492 3.2115 0.68239 6.8361 0.32746 3.6246 0.6486 7.0156 0.71367 7.5356l0.11831 0.9454-2.1055-0.12036-0.16859-2.0164-0.1686-2.0164h-1.4847l-0.14081 2.0656-0.14079 2.0656h-0.96467c-0.9576 0-0.96467-0.0046-0.96467-0.64063zm3.4773-6.6872c-0.0649-0.67622-0.17797-2.0951-0.25125-3.153-0.0733-1.0579-0.17582-1.8809-0.22784-1.8289-0.0835 0.08353-0.60839 4.9758-0.62945 5.8671-6e-3 0.25647 0.1493 0.34426 0.60919 0.34426h0.61735zm3.4548-0.39345 0.0515-7.7213h2.1631l0.91674 3.4426 0.91674 3.4426 0.0673-3.4426 0.0673-3.4426 1.6721-0.12106v15.59l-0.53199-0.06227c-0.51666-0.06041-0.57477-0.20564-2.0164-5.0381l-1.4844-4.9759-0.0525 5.0251-0.0525 5.025h-1.7684zm10.076 7.4748c-0.052-0.1356-0.0713-3.6102-0.043-7.7213l0.0516-7.4748 1.7831-0.05611c2.2589-0.07098 3.17 0.20808 3.715 1.138 0.37674 0.64285 0.40752 1.0581 0.464 6.2594 0.0867 7.9827 0.0311 8.1012-3.7946 8.1012-1.4865 0-2.1086-0.07052-2.1761-0.24652zm3.788-2.3109c0.30374-0.60348 0.35699-9.5378 0.0615-10.315-0.16208-0.4263-0.31473-0.50461-0.98361-0.50461h-0.79176v11.434l0.73318-0.06111c0.55075-0.04589 0.79479-0.18344 0.98071-0.55286zm13.827-4.1204v-6.6777l-1.8689-0.1199v-1.9672h5.7049v1.9672l-1.8688 0.1199v13.355h-1.9672zm4.5715-1.0436 0.0515-7.7213h1.9672l0.0515 7.7213 0.0515 7.7213h-2.1731zm3.2974-0.04914v-7.7705h1.0727c1.0438 0 1.0774 0.01719 1.2449 0.63935 0.0947 0.35164 0.51934 1.9584 0.94367 3.5705l0.77155 2.9311 0.0537-3.5705 0.0536-3.5705h1.7616v15.541h-0.55399c-0.55327 0-0.55583-0.0058-2.0529-4.9672l-1.4989-4.9672-0.0127 4.9672-0.0127 4.9672h-1.7705zm13.031 0.04914 0.0515-7.7213h2.1927c2.4374 0 2.8084 0.15759 3.3426 1.4199 0.39882 0.94223 0.36455 5.0056-0.0496 5.8782-0.17462 0.36798-0.39819 0.66907-0.49685 0.66907-0.0986 0-0.0496 0.2509 0.10897 0.55757 0.15857 0.30666 0.38248 1.5239 0.49757 2.7049 0.115 1.181 0.25394 2.6121 0.3086 3.1801l0.0993 1.0328h-0.9915c-0.61494 0-1.025-0.0934-1.0798-0.24591-0.0486-0.13525-0.17204-1.4683-0.27437-2.9623-0.10572-1.5438-0.28765-2.8388-0.42141-3-0.12944-0.15598-0.49008-0.28358-0.80143-0.28358h-0.56607v6.4918h-1.9718zm3.4073-0.81993c0.32556-0.23782 0.39191-0.57333 0.44988-2.2752 0.0785-2.3048-0.13133-2.7573-1.2788-2.7573h-0.65803v5.3115h0.55255c0.30392 0 0.72441-0.12554 0.93444-0.27896zm11.103 1.8527v-6.6885h-1.9672v-2.1639h5.7049v2.1639h-1.7705v13.377h-1.9672zm7.4754 5.6388c0-0.98007 0.0935-1.1857 1.4088-3.0984 2.2509-3.2731 2.3928-3.6331 2.4747-6.2781 0.0786-2.5414-0.11327-3.2064-0.95414-3.305-0.77877-0.09131-0.97016 0.34171-1.0384 2.3498l-0.0626 1.8405-1.8284 0.1199v-2.1942c0-3.4552 0.60266-4.2329 3.1679-4.0879 2.3437 0.13243 2.8362 1.132 2.6994 5.4787-0.0902 2.8641-0.23645 3.2798-2.22 6.3071l-1.2777 1.9501h3.3354v1.9672h-5.7049zm13.575 0.01696c9.9e-4 -0.97306 0.10259-1.1833 1.7532-3.6345 1.9656-2.919 2.1819-3.5457 2.1772-6.3096-3e-3 -1.959-0.26108-2.6674-1.0021-2.7544-0.77094-0.09038-0.95631 0.33152-1.0287 2.3415l-0.0666 1.8488-0.9171 0.05995-0.91711 0.05994v-2.1942c0-3.4552 0.60267-4.2329 3.1679-4.0879 2.2975 0.12981 2.7366 0.93507 2.7291 5.0047-6e-3 3.0351-0.21841 3.681-2.2194 6.7349l-1.308 1.9964h3.3354v1.9672h-5.7049zm9.6382-0.54099v-1.5738h-3.541v-0.91204c0-0.79634 1.0608-4.3281 3.1235-10.399l0.33418-0.98361h1.9522l0.0524 5.2623c0.0508 5.0991 0.0645 5.2623 0.44262 5.2623 0.33134 0 0.39023 0.13358 0.39023 0.88525 0 0.7541-0.0583 0.88525-0.39345 0.88525-0.36065 0-0.39344 0.13115-0.39344 1.5738v1.5738h-1.9672zm-0.0186-5.7541-0.0186-2.4098-0.76504 2.3607c-0.42077 1.2984-0.7665 2.3828-0.76826 2.4098-2e-3 0.02707 0.35088 0.04914 0.78366 0.04914h0.78688zm-318.14 4.979c-0.831-0.91982-1.0661-1.8934-0.72893-3.0188 0.47995-1.6019 2.0137-2.4172 3.5769-1.9013 2.0632 0.68091 2.7583 2.9192 1.4058 4.5266-0.69555 0.82661-1.4514 1.1685-2.583 1.1685-0.88015 0-1.0357-0.07214-1.6708-0.77515zm2.9431-0.13574c1.0911-0.51775 1.6134-1.8563 1.1536-2.9565-0.34295-0.8208-1.7566-1.5431-2.6403-1.349-1.171 0.25719-1.9156 1.6795-1.5578 2.9755 0.41726 1.5112 1.5864 2.0219 3.0444 1.3301zm-1.7663-1.2194c-0.43999-0.48618-0.42063-1.6572 0.0342-2.0688 0.8281-0.74942 2.1976-0.15739 2.1976 0.94999 0 1.1791-1.4978 1.9299-2.2318 1.1188zm1.3423-0.54936c0.37884-0.37884 0.32701-0.83818-0.12683-1.124-0.65358-0.41156-1.2784 0.6433-0.71485 1.2069 0.31266 0.31266 0.4607 0.29808 0.84168-0.08283zm10.957 2.3486c-1.51-0.7441-2.1481-3.0612-1.1815-4.2901 0.50633-0.6437 1.7947-1.2704 2.622-1.2755 1.9583-0.01185 3.2684 2.4804 2.3364 4.4445-0.65191 1.3738-2.2821 1.8576-3.777 1.121zm2.8002-0.86443c0.84104-0.99953 0.91279-2.1369 0.20312-3.22-1.0662-1.6273-4.0218-0.6232-4.0218 1.3663 0 1.274 1.2458 2.4569 2.5891 2.4583 0.56325 5.84e-4 0.83123-0.1312 1.2296-0.60459zm-2.5489-1.0579c-0.89565-0.89565-0.36274-2.2712 0.87991-2.2712 0.62197 0 1.3913 0.76146 1.3913 1.3771 0 0.56291-0.76971 1.377-1.3019 1.377-0.26756 0-0.70376-0.21729-0.96933-0.48287zm1.4844-0.50074c0.27228-0.50876-0.0635-1.1803-0.59017-1.1803-0.57297 0-0.83275 0.63384-0.47129 1.1499 0.37146 0.53034 0.78753 0.54225 1.0615 0.03044zm-23.518-6.5718c-0.97749-0.42577-1.6624-1.3931-1.6624-2.348 0-2.2868 2.2582-3.8378 4.2112-2.8923 1.5416 0.74627 2.1612 2.802 1.2478 4.1401-0.83915 1.2294-2.4371 1.6924-3.7966 1.1002zm2.147-0.58469c0.78023-0.32601 1.5021-1.1895 1.5021-1.7968 0-0.68159-0.53642-1.8064-1.0245-2.1483-0.63819-0.447-1.96-0.3947-2.5922 0.10258-1.9049 1.4984-1.2129 3.8293 1.2132 4.087 0.13872 0.01475 0.54435-0.09526 0.90139-0.24445zm-1.0552-0.85389c-1.0423-0.37631-1.273-1.3575-0.50075-2.1297 0.92744-0.92744 2.2712-0.43636 2.2712 0.83 0 0.86021-0.98499 1.5833-1.7705 1.2997zm1.082-1.2141c0-0.2587-0.16046-0.56853-0.35658-0.68852-0.29067-0.17784-0.42759-0.13164-0.74067 0.24991-0.47535 0.5793-0.18433 1.058 0.58861 0.96809 0.38874-0.04519 0.50864-0.17001 0.50864-0.52948zm28.408 2.4709c-1.1704-0.61894-1.7418-1.882-1.3869-3.0663 0.71965-2.402 3.3352-3.0997 4.9073-1.3091 1.46 1.6628 1.2299 3.5316-0.5464 4.4378-1.0176 0.51914-1.9096 0.50038-2.974-0.0625zm2.3169-0.34153c1.3745-0.52077 1.837-1.7943 1.1406-3.1409-0.59265-1.1461-2.5362-1.5796-3.4142-0.76156-1.2703 1.1835-1.0389 3.1847 0.44282 3.8296 0.75476 0.32848 1.118 0.34293 1.8308 0.07284zm-1.6465-0.97188c-0.87108-0.35096-1.0979-1.4277-0.44782-2.1255 0.52724-0.56592 1.3806-0.55494 1.9253 0.02474 0.5866 0.6244 0.55005 1.3871-0.0906 1.8911-0.56471 0.4442-0.73918 0.47058-1.3868 0.20962zm1.2855-1.0676c0.0735-0.38685-0.43122-0.89826-0.88645-0.89826-0.41965 0-0.72547 0.76346-0.44244 1.1045 0.33937 0.40892 1.2386 0.26937 1.3289-0.20623zm-31.768-9.9385c-1.4743-0.35076-2.4324-1.61-2.4324-3.1968 0-0.72186 0.10647-0.96688 0.63935-1.4713 0.86063-0.81461 1.3582-1.0459 2.2494-1.0455 1.0015 4.06e-4 2.02 0.53883 2.5664 1.3567 0.51549 0.77164 0.56837 1.6477 0.15866 2.6282-0.30337 0.72606-1.3299 1.7197-1.7767 1.7197-0.14514 0-0.3818 0.03509-0.52589 0.07784-0.1441 0.04287-0.53954 0.01185-0.87877-0.06889zm1.711-0.8024c0.4476-0.23955 1.168-1.5714 1.168-2.1593 0-1.0512-1.2062-2.162-2.3475-2.162-0.6672 0-1.704 0.50837-2.053 1.0066-0.66512 0.94959-0.10356 2.6765 1.0622 3.2663 0.59269 0.2999 1.656 0.3236 2.1703 0.04833zm-1.8901-1.0665c-0.26557-0.26557-0.48286-0.70177-0.48286-0.96933 0-0.53219 0.81414-1.3019 1.377-1.3019 0.61559 0 1.377 0.76935 1.377 1.3913 0 1.2426-1.3756 1.7756-2.2712 0.87991zm1.5438-0.52319c0.31742-0.50411 0.0215-0.96117-0.62235-0.96117-0.69463 0-0.89092 0.39296-0.48545 0.97184 0.33322 0.47574 0.80438 0.4712 1.1078-0.01046zm29.154 2.4405c-0.83545-0.20691-1.6373-1.0313-1.9662-2.0215-0.41585-1.252-0.25882-1.9945 0.60443-2.8577 2.0688-2.0688 5.8936-0.14481 5.0135 2.522-0.5389 1.6329-2.213 2.7135-3.6517 2.3572zm1.8753-0.94594c0.72657-0.37572 1.1739-1.2261 1.1739-2.2317 0-0.62858-0.11699-0.87761-0.60532-1.2885-0.79176-0.66621-1.4237-0.80865-2.3528-0.53029-1.1387 0.34116-1.6267 1.0739-1.5128 2.2717 0.16506 1.7355 1.7388 2.5846 3.297 1.7788zm-2.3528-1.0068c-0.22425-0.28509-0.40772-0.68747-0.40772-0.89419 0-0.45745 0.84531-1.3416 1.2827-1.3416 0.38626 0 1.1236 0.37332 1.3209 0.66879 0.31881 0.47746 0.14395 1.2751-0.36778 1.6776-0.70267 0.55272-1.3364 0.51437-1.828-0.1106zm1.4569-0.3908c0.44592-0.44592 0.29329-0.94856-0.30938-1.0188-0.67866-0.07911-1.0666 0.38717-0.7751 0.9318 0.2612 0.48805 0.6521 0.51942 1.0845 0.08701zm-23.305-6.9313c-0.77085-0.41342-1.5756-1.7532-1.5756-2.6231 0-0.80397 0.44537-1.741 1.1359-2.39 1.0615-0.99764 2.9064-0.69872 4.0459 0.65554 1.2684 1.5074 0.75064 3.4938-1.1336 4.3495-1.0201 0.46331-1.6201 0.46526-2.4726 0.0081zm2.5989-0.74663c0.65855-0.33165 0.9796-0.90073 0.9796-1.7364 0-1.4192-1.0631-2.4635-2.508-2.4635-1.3044 0-2.267 1.5287-1.8589 2.9518 0.45001 1.5691 1.7782 2.0585 3.3873 1.2481zm-1.9668-0.57167c-0.32097-0.22482-0.43722-0.50438-0.43722-1.0515 0-1.3161 1.256-1.8711 2.1296-0.94108 1.16 1.2347-0.30762 2.9625-1.6924 1.9926zm1.2939-0.52c0.35447-0.35446 0.2844-0.90455-0.14444-1.1341-0.58219-0.31158-0.78107-0.24849-0.9164 0.29072-0.20466 0.81544 0.51591 1.3883 1.0608 0.84335zm10.912 1.8274c-1.0501-0.48982-1.6255-1.4014-1.6255-2.5749 0-2.7133 3.4668-4.1127 5.0492-2.0381 0.72273 0.94755 0.85634 2.6362 0.28105 3.552-0.82471 1.3129-2.2745 1.7281-3.7047 1.061zm2.7992-1.0282c0.51283-0.49588 0.59016-0.71025 0.59016-1.6359 0-0.91449-0.0835-1.1532-0.59016-1.6862-0.53762-0.56569-0.67499-0.61304-1.5429-0.53184-1.2757 0.11935-2.0981 0.90914-2.2378 2.149-0.0822 0.72945-0.0181 0.96659 0.38973 1.4407 0.56845 0.66087 1.6068 1.0821 2.309 0.93676 0.27049-0.056 0.75738-0.35861 1.082-0.67246zm-2.6128-0.41897c-0.56869-0.60533-0.5529-1.2259 0.0464-1.8252 0.83165-0.83165 1.9088-0.52294 2.1982 0.62999 0.30719 1.2239-1.3758 2.1201-2.2446 1.1952zm1.5308-0.53756c0.1505-0.28121 0.14868-0.50906-6e-3 -0.79875-0.2625-0.49048-0.73286-0.43262-1.1101 0.13654-0.24313 0.36682-0.23812 0.45985 0.0397 0.7377 0.42807 0.42807 0.82202 0.40044 1.0767-0.07549z" stroke-width="1.1617"/></svg>
