<?xml version="1.0" encoding="UTF-8"?>
<svg width="200" height="60" version="1.1" viewBox="0 0 200 60" xmlns="http://www.w3.org/2000/svg"><path d="m28.035 56.322c-2.021-2.0231-3.6746-3.7755-3.6746-3.8943 0-0.11877 0.44799-0.26894 0.99552-0.33382 4.877-0.57759 7.56-6.4169 4.5592-9.9227-0.91354-1.0673-3.1864-2.1648-4.7923-2.3142-3.0652-0.28511-5.71 2.194-5.9974 5.6216-0.139 1.6581 0.28336 3.1893 1.2171 4.4126 0.37646 0.49319 0.68448 0.98419 0.68448 1.0911 0 0.12366-1.9262 0.19439-5.2941 0.19439h-5.2941v-5.2941c0-3.3679 0.07073-5.2941 0.19438-5.2941 0.10691 0 0.59791 0.30802 1.0911 0.68448 2.4021 1.8336 6.0332 1.6516 8.3281-0.41728 1.7886-1.6126 2.1974-3.7249 1.2231-6.3206-1.0221-2.7229-2.7316-4.0348-5.2485-4.0279-3.266 0.0093-6.0542 2.489-6.4898 5.7727-0.071792 0.54124-0.19083 1.0213-0.26452 1.0669-0.073692 0.04551-1.8038-1.5888-3.8448-3.6318l-3.7108-3.7147 3.7144-3.7183c2.0429-2.0451 3.7605-3.6722 3.8167-3.616 0.056275 0.05627 0.2097 0.62875 0.34095 1.2722 0.60637 2.9727 2.5456 4.919 5.4329 5.4527 1.8644 0.34465 3.8014-0.28246 4.9646-1.6073 0.92382-1.0522 1.8254-3.4194 1.8202-4.7795-0.0076-2.0299-1.2006-3.8511-3.231-4.9324-0.87365-0.46527-1.1939-0.52212-2.9412-0.52212-1.7413 0-2.0705 0.05801-2.9412 0.51787-0.53922 0.28483-1.1485 0.70388-1.3539 0.93122-0.86316 0.95519-0.90098 0.7503-0.90098-4.8808v-5.2941h5.2941c3.3679 0 5.2941 0.070749 5.2941 0.19439 0 0.10688-0.30802 0.5979-0.68448 1.0911-1.3776 1.8048-1.6339 4.4307-0.64355 6.5939 0.96154 2.1003 2.5028 3.2458 4.6242 3.4369 1.6215 0.14605 4.065-0.81561 5.3581-2.1088 3.3481-3.3481 0.69995-9.6214-4.2784-10.135-0.57472-0.059286-1.0426-0.20615-1.0426-0.3272 0-0.12078 1.6553-1.8732 3.6784-3.8942l3.6784-3.6746 3.6997 3.7036c2.1601 2.1624 3.6436 3.7943 3.565 3.9216-0.07413 0.11992-0.43506 0.21804-0.80211 0.21804-1.8304 0-4.2255 1.6085-5.28 3.546-1.0157 1.8662-0.92106 4.3485 0.23248 6.0952 0.94792 1.4353 3.5073 2.618 5.64 2.6061 1.5971-0.0092 2.5289-0.41387 3.6662-1.5934 2.1792-2.2599 2.3705-6.0677 0.43236-8.6067-0.36696-0.48075-0.6672-0.91886-0.6672-0.97359 0-0.054772 2.4044-0.076078 5.3431-0.04736l5.3431 0.052221 0.04787 5c0.02622 2.75-0.03047 5.1221-0.12586 5.2714-0.13897 0.21707-0.32832 0.14714-0.94626-0.34943-2.3742-1.908-6.1654-1.8624-8.46 0.10155-2.0011 1.7129-2.4263 4.2365-1.1689 6.938 1.1552 2.4819 2.6578 3.5701 4.9534 3.5874 1.4125 0.01038 2.4253-0.28608 3.6867-1.08 1.5027-0.9458 2.8912-3.2061 2.8984-4.7181 0.0071-1.5273 0.18064-1.4209 4.1585 2.553l3.7784 3.7745-3.766 3.766c-2.0713 2.0713-3.8285 3.7036-3.9048 3.6273-0.07632-0.07632-0.20466-0.62471-0.28527-1.2187-0.57851-4.2631-5.1979-6.9272-8.8781-5.1202-1.9087 0.9372-3.2903 3.3908-3.3287 5.9117-0.01807 1.1965 0.05829 1.5193 0.58113 2.451 1.9083 3.4005 6.4704 4.1475 9.8494 1.6127 0.53464-0.40107 0.69119-0.44296 0.83219-0.2227 0.09553 0.14921 0.15212 2.5213 0.12579 5.2713l-0.04787 5-5.0948 0.05244c-2.8022 0.0287-5.2139 0.0067-5.3595-0.04922-0.194-0.07445-0.09755-0.31263 0.36093-0.89149 0.93495-1.1805 1.4085-2.6011 1.4034-4.2098-0.0089-2.7842-1.5007-5.0381-3.9017-5.8947-1.2261-0.43741-2.4656-0.34019-4.2025 0.32963-2.6643 1.0275-3.8796 2.6269-3.8877 5.1165-0.01084 3.3295 2.383 6.1067 5.6658 6.5729 0.58421 0.08302 1.0918 0.23956 1.1279 0.34802 0.03614 0.1085-1.5898 1.8509-3.6131 3.8722l-3.6789 3.675zm6.8156-0.63539c2.911-2.9152 3.0912-3.1373 2.5467-3.1374-1.733-4.5e-4 -4.5881-2.3087-5.3362-4.3141l-0.36491-0.97824-0.55522 1.2096c-0.93995 2.0478-2.9269 3.705-4.8018 4.0047-0.44127 0.07051-0.80231 0.18216-0.80231 0.248 0 0.14563 5.9334 6.1047 6.0784 6.1047 0.0565 0 1.5124-1.4118 3.2354-3.1372zm-4.3291 1.1968c-2.0521-0.932-2.4828-3.4077-0.86118-4.9503 1.757-1.6714 4.398-0.7938 4.9746 1.653 0.30983 1.3148-0.82329 3.0681-2.2467 3.4763-0.87817 0.25186-0.9287 0.24704-1.8667-0.17901zm2.2767-0.70992c1.3406-0.69327 1.5625-2.8259 0.40192-3.8629-1.1255-1.0056-2.9887-0.62352-3.6387 0.74615-0.98785 2.0817 1.1875 4.1764 3.2367 3.1167zm-2.0388-0.89326c-0.3985-0.31348-0.51664-0.57923-0.51664-1.1622 0-1.386 1.4988-2.0485 2.4599-1.0873 0.64309 0.64309 0.62924 1.4742-0.03565 2.139-0.62223 0.62223-1.2135 0.65649-1.9076 0.11055zm1.4441-0.574c0.48476-0.48476 0.48743-0.62322 0.02303-1.1967-0.32578-0.40233-0.42938-0.4284-0.88235-0.22202-0.59329 0.27032-0.69468 1.0132-0.2051 1.5028 0.40362 0.40362 0.59161 0.38878 1.0644-0.08408zm-12.395-4.4608c-1.6415-3.2288-1.7348-4.8065-0.45802-7.743 0.13213-0.30387 0.04465-0.29494-0.80326 0.0822-1.9388 0.86249-5.0224 0.65292-6.5661-0.44623-0.28845-0.2054-0.57701-0.37345-0.64125-0.37345-0.06423 0-0.11679 1.9412-0.11679 4.3137v4.3137h4.3301c2.3815 0 4.2964-0.06623 4.2553-0.14705zm-6.7734-0.6362c-1.0195-0.6216-1.4551-1.485-1.3649-2.7053 0.12531-1.6942 1.3364-2.8513 2.9843-2.8513 1.1702 0 2.0659 0.57543 2.6162 1.6808 0.55804 1.1208 0.4515 2.2052-0.305 3.1043-1.0077 1.1976-2.6902 1.5279-3.9306 0.77152zm2.7043-0.49457c0.7325-0.3788 1.1701-1.2245 1.1701-2.2615 0-0.66389-0.1227-0.93635-0.66666-1.4803-0.56346-0.56345-0.80524-0.66666-1.5618-0.66666-0.71994 0-1.0296 0.11806-1.5822 0.60322-2.1474 1.8854 0.09741 5.1204 2.6406 3.8052zm-2.087-0.94605c-0.38143-0.32808-0.53381-0.6448-0.53381-1.1095 0-0.46466 0.15238-0.78137 0.53381-1.1095 0.687-0.59094 1.3862-0.58316 1.9914 0.02197 0.68547 0.68546 0.63875 1.5082-0.12199 2.1483-0.74617 0.62786-1.1827 0.63919-1.8694 0.0484zm1.6924-0.72471c0.24708-0.46166 0.10216-1.0864-0.28663-1.2356-0.76386-0.2931-1.5214 0.5426-1.2152 1.3406 0.17318 0.4513 1.2442 0.37641 1.5019-0.10502zm36.859-1.3815c0-2.3815-0.06725-4.3006-0.14949-4.2647-0.08221 0.03589-0.67781 0.33006-1.3235 0.6536-0.94758 0.47476-1.4766 0.60116-2.7427 0.65523-1.5308 0.06541-1.8689-0.0096-3.8908-0.85422-0.34179-0.1429-0.34016-0.10945 0.03047 0.617 1.0177 1.9949 0.96581 4.4295-0.13791 6.4674l-0.57185 1.0558h8.7858zm-5.1225 3.4597c-2.7586-1.8745-0.924-6.1244 2.3284-5.3937 0.94817 0.21302 2.1319 1.4546 2.3144 2.4276 0.19584 1.0439-0.35707 2.3522-1.2507 2.9595-0.98216 0.66738-2.4156 0.6702-3.3921 0.0067zm3.4005-0.87815c0.98515-1.1026 0.65087-2.9808-0.65028-3.6536-2.2026-1.139-4.4302 1.2337-3.063 3.2625 0.6033 0.89523 1.2318 1.1938 2.2917 1.0887 0.67023-0.06644 1.0041-0.23032 1.4216-0.69749zm-2.3956-0.26514c-0.26961-0.13897-0.60847-0.49934-0.75302-0.80081-0.34806-0.72592-0.0089-1.5758 0.75538-1.8924 0.65695-0.27213 1.2364-0.12621 1.769 0.44543 1.0849 1.1646-0.34717 2.9819-1.7713 2.2477zm1.3647-0.82004c0.29994-0.36141 0.09478-1.0275-0.39763-1.291-0.81186-0.4345-1.5854 0.68294-0.9279 1.3404 0.32251 0.32255 1.039 0.2958 1.3255-0.04943zm-16.856-5.5486c4.51e-4 -0.02693-0.42686-0.04897-0.94959-0.04897h-0.95041l0.96232 1.9445 0.46843-0.92323c0.25763-0.50777 0.4688-0.94529 0.46925-0.97224zm0.70649-1.0109c0.814-0.36967 1.4794-1.1144 1.7373-1.9445 0.10117-0.32563 0.23419-0.41756 0.4669-0.32272 1.5364 0.62622 2.5712 0.53592 3.7645-0.32846 1.3615-0.98624 1.8914-2.723 1.2785-4.1899l-0.28244-0.67596 0.83972-0.37146c0.46185-0.20428 1.0522-0.66933 1.3119-1.0334 0.4003-0.56126 0.47213-0.89098 0.47213-2.1672 0-1.7742-0.31978-2.3631-1.6532-3.045-1.0866-0.55564-1.0494-0.49451-0.70448-1.1559 0.90323-1.732-0.35365-4.1803-2.4718-4.8149-0.7576-0.22698-1.5108-0.1367-2.5323 0.30353-0.22171 0.09553-0.39656-0.08163-0.652-0.66057-0.95033-2.154-4.103-2.6693-5.7878-0.94612-0.3251 0.33253-0.64651 0.85694-0.71426 1.1654-0.14322 0.6521-0.19269 0.66255-1.1811 0.24958-1.4953-0.62479-3.4551 0.23996-4.3158 1.9044-0.35386 0.68428-0.36225 2.2669-0.01555 2.9313 0.25681 0.49212 0.23981 0.5157-0.67356 0.93473-1.5356 0.70447-2.2584 2.4534-1.7675 4.2766 0.23926 0.88852 1.5265 2.225 2.1431 2.225 0.54037 0 0.61057 0.1704 0.30862 0.74915-0.35697 0.68422-0.35293 2.2598 0.0077 2.957 0.41323 0.7991 1.5537 1.7315 2.4442 1.9983 0.64007 0.1918 0.94398 0.17635 1.7558-0.08915 1.2359-0.40425 1.1492-0.42016 1.2937 0.23744 0.13837 0.62998 1.1306 1.6743 1.8693 1.9673 0.78482 0.31132 2.1894 0.24045 3.0586-0.15435zm-2.4004-0.99728c-0.61026-0.24626-1.0504-0.97183-1.0504-1.7316 0-0.49172 0.17168-0.83394 0.66667-1.3289 0.76395-0.76394 1.2941-0.83298 2.0831-0.2712 1.8814 1.3397 0.42758 4.19-1.6993 3.3317zm1.7017-0.89239c0.37464-0.45141 0.1384-1.4863-0.43691-1.9139-0.49911-0.37096-0.55525-0.37457-1.0263-0.06589-0.56874 0.37266-0.85139 1.2135-0.56318 1.6754 0.45512 0.72936 1.5386 0.89213 2.0264 0.30441zm-8.1075-2.0121c-0.95923-1.0012-0.5644-2.4806 0.80052-2.9996 1.075-0.40872 2.3981 0.43367 2.3981 1.5269 0 0.6295-0.50073 1.5698-0.96953 1.8208-0.72225 0.38653-1.6666 0.23907-2.2291-0.34806zm2.1028-0.41121c0.22717-0.25101 0.31722-0.61958 0.27549-1.1275-0.05875-0.71506-0.09988-0.75768-0.78612-0.81471-1.2404-0.10305-1.9027 0.91248-1.2255 1.8793 0.38108 0.54407 1.2715 0.57631 1.7362 0.06289zm9.6427 0.35787c-0.53695-0.63813-0.67402-1.6606-0.31304-2.3351 0.31641-0.59125 1.413-0.85807 2.1906-0.53304 0.90779 0.37946 1.2334 0.84203 1.2334 1.7523 0 1.6298-2.0575 2.3678-3.1109 1.1159zm2.075-0.30944c0.79432-0.71885 0.2087-2.0284-0.9071-2.0284-0.76201 0-1.0873 0.30501-1.0873 1.0196 0 1.0872 1.2237 1.7063 1.9944 1.0088zm-8.7876-2.1906c-0.50321-1.607-0.84527-1.9478-2.4721-2.4624-0.3221-0.1019-0.31905-0.14942 0.04828-0.75191 0.4969-0.815 0.49959-1.7255 8e-3 -2.6892l-0.38563-0.75591 0.65986-0.12378c1.1346-0.21285 1.6451-0.76553 2.148-2.3253 0.10638-0.32997 0.15532-0.32728 0.89292 0.04898 0.9779 0.49889 1.4921 0.50075 2.4568 0.0092 0.41986-0.21406 0.7758-0.36847 0.79098-0.34314 0.0152 0.02537 0.18383 0.46757 0.37476 0.98276 0.2715 0.73256 0.51241 1.021 1.1054 1.3235 0.41704 0.21275 0.89412 0.38684 1.0602 0.38684 0.38634 0 0.38438 0.01587-0.13412 1.0831-0.4581 0.94292-0.44203 1.0856 0.32237 2.8634 0.10804 0.25126-0.01587 0.34784-0.58274 0.45418-0.90572 0.16992-1.558 0.81307-1.8655 1.8395l-0.23908 0.798-0.74854-0.38188c-0.94452-0.48186-1.659-0.48318-2.5974-0.0045-0.67994 0.34665-0.74796 0.35062-0.8424 0.04898zm2.9084-0.9446 0.84706 0.25492 0.35337-0.73964c0.23958-0.50147 0.60002-0.85367 1.1193-1.0937 0.62842-0.29049 0.74088-0.42449 0.62633-0.74622-0.18884-0.53038-0.17675-2.0547 0.02073-2.598 0.12058-0.33189 0.08786-0.44118-0.13201-0.44118-0.44736 0-1.4183-0.9008-1.6975-1.5749-0.18374-0.44339-0.3328-0.56547-0.56473-0.46243-0.58684 0.26071-1.7764 0.31421-2.3718 0.10664-0.56751-0.19784-0.60923-0.17364-0.99098 0.57464-0.24807 0.48627-0.65482 0.9034-1.0774 1.1049-0.75532 0.36019-0.76791 0.3986-0.46362 1.4143 0.17137 0.57198 0.15406 0.86492-0.08493 1.4369l-0.30017 0.71841 0.8038 0.44863c0.4703 0.2625 0.95556 0.74331 1.1696 1.1588l0.36576 0.71023 0.76507-0.26357c0.6326-0.21796 0.91174-0.21945 1.6121-0.0081zm-1.3412-2.7108c-0.59554-0.41714-0.68115-0.99995-0.23094-1.5723 0.44587-0.56684 0.87331-0.6205 1.4918-0.1873 0.54408 0.38109 0.56396 1.1352 0.04363 1.6556-0.46723 0.46722-0.75338 0.49004-1.3045 0.10398zm1.0157-0.70086c0.18003-0.29129-0.27406-0.77315-0.60788-0.64506-0.42979 0.16492-0.34855 0.84972 0.1008 0.84972 0.20932 0 0.4375-0.09206 0.50708-0.20467zm-10.039 1.1078c-0.7301-0.628-0.76506-1.824-0.07479-2.5588 0.69746-0.74242 1.9898-0.70887 2.7706 0.07191 0.77418 0.77416 0.76412 1.5586-0.03017 2.3529-0.7772 0.77719-1.8548 0.83133-2.6656 0.13393zm2.1994-0.60013c0.59154-0.59155 0.60104-0.83657 0.05495-1.4178-0.79704-0.84841-2.1227-0.42861-2.1227 0.6722 0 1.1664 1.2105 1.6029 2.0677 0.74565zm14.373 0.51196c-0.46353-0.41416-0.62401-0.72462-0.62401-1.2072 0-1.5259 2.2616-2.3772 3.31-1.2459 0.72272 0.77983 0.58682 2.0887-0.28648 2.7593-0.58068 0.44583-1.7206 0.30036-2.3995-0.30622zm2.1864-0.42283c0.4711-0.47111 0.49774-0.93848 0.08692-1.525-0.59224-0.84554-2.2438-0.30036-2.2438 0.74068 0 0.54349 0.68572 1.1765 1.2745 1.1765 0.26961 0 0.66667-0.17647 0.88236-0.39215zm-4.0194-4.9294c-0.76924-0.2104-1.0787-0.66236-1.0787-1.5756 0-1.0597 0.8639-2.0048 1.8325-2.0048 1.3452 0 2.2244 1.4178 1.6127 2.6007-0.16785 0.32456-0.3969 0.6468-0.50902 0.71611-0.47719 0.29492-1.3106 0.41318-1.8575 0.2636zm1.5039-0.88531c0.43992-0.39812 0.4665-1.3043 0.05044-1.7203-0.45735-0.45735-1.3771-0.38986-1.7396 0.12766-0.36342 0.51884-0.39813 1.3537-0.06994 1.6819 0.33981 0.33982 1.3411 0.28903 1.7591-0.08916zm-13.744 0.40512c-1.4714-1.2381 0.01636-3.7181 1.8194-3.0326 1.1725 0.44577 1.6228 2.2528 0.79064 3.1723-0.51381 0.56775-1.8545 0.49595-2.61-0.13979zm2.0277-0.19963c0.41806-0.16042 0.40851-1.4081-0.01436-1.8753-0.68537-0.75733-2.0284-0.18689-2.0284 0.86152 0 0.79949 1.1343 1.3624 2.0428 1.0138zm3.918-2.1163c-0.88868-0.88868-0.9223-1.853-0.09352-2.6818 1.4389-1.4388 3.6759 0.14707 2.8833 2.0441-0.28342 0.67831-1.1472 1.3044-1.7997 1.3044-0.1779 0-0.62346-0.3-0.99012-0.66668zm1.9314-0.47198c0.52138-0.44775 0.44979-1.5275-0.1263-1.905-0.60666-0.3975-1.4534-0.19546-1.7306 0.41293-0.26679 0.58555 0.0957 1.5244 0.69434 1.7983 0.45292 0.20725 0.61396 0.16482 1.1625-0.30628zm-9.1471 16.741 0.60782-0.13078-0.70586-0.72618-0.70585-0.72618-0.26394 0.88236c-0.14516 0.4853-0.36575 1.0063-0.4902 1.1577-0.17971 0.21873-0.10525 0.21352 0.36197-0.02516 0.32353-0.16544 0.86175-0.35965 1.1961-0.43156zm4.4963 0.28945c-0.07217-0.11679-0.22278-0.15573-0.33469-0.08663-0.13174 0.08143-0.11168 0.18244 0.05689 0.28665 0.31466 0.19449 0.45789 0.09135 0.2778-0.20009zm8.0986 0.21051c0.21274-0.13486 0.20665-0.18687-0.03278-0.27872-0.16188-0.06218-0.34298 0.01382-0.40244 0.16877-0.12126 0.31596 0.04428 0.35778 0.43523 0.11002zm5.4475-0.63726c-0.15853-0.36383-0.34161-0.83051-0.40684-1.0371-0.10772-0.34101-0.18184-0.31426-0.80632 0.29101l-0.6877 0.66654 0.87618 0.29721c0.4819 0.16349 0.94124 0.3634 1.0208 0.44428 0.2852 0.29009 0.28697-0.0124 0.0039-0.662zm-32.277-3.5537c2.661e-4 -0.76121 1.081-2.7576 1.9802-3.6579 0.4745-0.4751 1.4258-1.1285 2.114-1.4521l1.2512-0.58829-1.0048-0.37482c-1.9592-0.73084-3.9601-3.0907-4.3056-5.078l-0.13332-0.76681-6.2698 6.2806 3.0345 3.0393c1.669 1.6716 3.1018 3.0392 3.1839 3.0392 0.082191 0 0.1495-0.19853 0.14959-0.44117zm-3.0902-3.0872c-2.5522-1.5561-1.4605-5.4881 1.5245-5.4905 1.2151-9.96e-4 2.145 0.54547 2.7031 1.5886 0.77133 1.4416 0.36106 2.8333-1.1355 3.8519-0.83577 0.56882-2.2049 0.59099-3.092 0.05014zm2.914-0.64419c0.92348-0.61964 1.2959-1.7808 0.88589-2.7621-0.34985-0.83731-1.3382-1.495-2.2482-1.496-1.9587-0.0023-3.0903 2.2661-1.86 3.7283 0.90351 1.0738 2.1148 1.273 3.2223 0.52985zm-1.9749-0.58808c-0.26635-0.13477-0.61929-0.48642-0.78431-0.78143-0.26896-0.48081-0.26908-0.59174-0.0011119-1.0708 0.16441-0.29392 0.53347-0.66604 0.82012-0.82693 0.46749-0.26239 0.59272-0.25842 1.2155 0.03856 1.1442 0.54565 1.2148 2.0293 0.1233 2.5937-0.69131 0.35749-0.75532 0.35967-1.3735 0.0469zm1.4439-0.97466c0.33601-0.53664-0.086661-1.0294-0.88294-1.0294-0.5876 0-0.67243 0.06588-0.72962 0.56695-0.036606 0.32064 0.048586 0.64086 0.19608 0.73706 0.39855 0.25997 1.1762 0.1092 1.4165-0.27461zm49.105-3.4144-3.0713-3.0713-0.23017 0.86538c-0.5724 2.1521-2.0179 3.8494-4.0147 4.7138-0.5912 0.25594-1.0764 0.52194-1.0783 0.59114-0.0019 0.06925 0.23932 0.18574 0.53586 0.25897 0.78047 0.19276 2.2953 1.2067 2.9972 2.0061 0.65168 0.74223 1.4657 2.3497 1.662 3.282 0.11923 0.56636 0.16611 0.52968 3.1958-2.5l3.0748-3.0748zm-3.2525 5.6214c-2.5925-1.5807-1.4564-5.4882 1.5963-5.4905 1.2222-9.27e-4 2.1563 0.56054 2.6976 1.6215 1.3068 2.5616-1.8188 5.378-4.2939 3.869zm2.8567-0.59433c0.36481-0.22242 0.78348-0.71584 0.95601-1.1267 0.41454-0.98722 0.04968-2.0973-0.89876-2.7344-2.2332-1.5002-4.9326 1.2488-3.2223 3.2814 0.88252 1.0488 2.0461 1.2619 3.165 0.57971zm-1.8536-0.58155c-0.51306-0.20704-1.0504-0.94005-1.0504-1.4329 0-0.19999 0.26823-0.63186 0.59609-0.9597 0.49887-0.49888 0.69874-0.57626 1.2255-0.47452 1.486 0.28703 1.8239 2.099 0.51733 2.7747-0.62562 0.32352-0.70227 0.32902-1.2885 0.09241zm1.3798-1.0311c0.33601-0.53664-0.08667-1.0294-0.88294-1.0294-0.5876 0-0.67243 0.06588-0.72963 0.56695-0.0366 0.32064 0.04858 0.64086 0.19609 0.73706 0.39855 0.25997 1.1762 0.1092 1.4165-0.27461zm-14.982 3.5294c0.0016-0.08093-0.08525-0.14704-0.19308-0.14704-0.10786 0-0.19474 0.19852-0.19308 0.44118 0.0024 0.35676 0.03937 0.3849 0.19308 0.14704 0.10453-0.16175 0.19144-0.3603 0.19308-0.44118zm-19.515 0.03544c-0.18438-0.29833-0.47898-0.20721-0.35708 0.11047 0.06184 0.16114 0.19286 0.24329 0.29116 0.18255 0.09829-0.06081 0.12797-0.19259 0.06592-0.29299zm-2.4426-3.9049v-0.97725l-0.73529 0.36889c-0.40441 0.20288-0.86116 0.40519-1.015 0.44957-0.16023 0.0462 0.13292 0.29419 0.68628 0.58052 0.53129 0.27492 0.98804 0.51238 1.015 0.52769 0.02697 0.01531 0.04902-0.41194 0.04902-0.94942zm24.964-0.50259c-0.5196-0.26362-0.94472-0.47968-0.94472-0.48013v0.95804 0.95886l1.8894-0.95746zm-22.538-3.3825c0.05317-0.08604 0.0265-0.26995-0.05927-0.40873-0.11369-0.18397-0.18489-0.1416-0.26282 0.15643-0.10312 0.39437 0.12422 0.57246 0.32209 0.2523zm19.362-0.36809c-0.17089-0.29388-0.20916-0.30235-0.21405-0.04736-0.0064 0.33021 0.19984 0.62752 0.33881 0.48856 0.04585-0.04586-0.01028-0.24436-0.12476-0.44118zm-18.161-5.0847c-1.535-0.56649-1.4588-0.6043-1.1191 0.55467l0.30335 1.035 1.404-1.3726zm17.936 0.33177 0.32886-0.97147-0.50476 0.25382c-0.27758 0.1396-0.76002 0.31516-1.072 0.39014l-0.56724 0.13632 0.65188 0.67257c0.35853 0.36991 0.69294 0.6315 0.74313 0.58131 0.05017-0.05014 0.23924-0.5284 0.42012-1.0627zm-5.3211-0.82524c-0.39096-0.24782-0.55648-0.20602-0.43524 0.10989 0.05948 0.15496 0.24057 0.23091 0.40244 0.16879 0.23944-0.09194 0.24556-0.14386 0.03278-0.27874zm-8.0066 0.02434c0-0.24568-0.20808-0.24568-0.58824 0-0.23783 0.15369-0.2097 0.19064 0.14706 0.19308 0.24265 0.0012 0.44118-0.08523 0.44118-0.19308zm-12.545-3.3029c1.4655-0.05801 1.8796 0.0023 2.9247 0.42424 1.0196 0.41183 1.1943 0.43874 1.0749 0.16557-0.68066-1.5571-0.89969-2.5741-0.83041-3.8556 0.06864-1.2695 0.25638-1.8313 1.2941-3.8725 0.04112-0.080941-1.8738-0.14706-4.2553-0.14706h-4.3301v8.599l1.2074-0.62306c1.0305-0.53177 1.4575-0.63294 2.9146-0.69059zm-2.3574-1.4521c-2.8071-1.9161-0.92826-6.2294 2.351-5.397 1.0287 0.26112 2.071 1.4044 2.2509 2.4689 0.18057 1.0688-0.41706 2.4303-1.3041 2.9712-0.91587 0.55838-2.4459 0.53841-3.2978-0.04307zm3.3761-0.91518c0.95301-1.0666 0.62208-2.9957-0.62448-3.6403-1.6541-0.85536-3.5358 0.27194-3.5358 2.1182 0 0.59929 0.75333 1.7198 1.3784 2.0504 0.82018 0.43366 2.1476 0.18158 2.7819-0.52829zm-2.3044-0.19854c-1.1861-0.49332-1.2562-2.2763-0.10818-2.7518 0.67524-0.27969 1.2515-0.13873 1.7883 0.43742 1.0348 1.1108-0.26592 2.9026-1.6801 2.3144zm1.2735-0.88667c0.29995-0.3614 0.0948-1.0275-0.39763-1.291-0.81186-0.4345-1.5854 0.68294-0.9279 1.3404 0.32251 0.32251 1.039 0.2958 1.3255-0.04944zm36.871 0.48079v-4.3137h-8.7858l0.57186 1.0558c1.0783 1.9909 1.1414 4.5005 0.16126 6.4216l-0.37444 0.73398 0.92925-0.42921c0.76926-0.3553 1.2837-0.4292 2.9881-0.4292 1.948 0 2.1168 0.03313 3.1373 0.61545 0.59314 0.33849 1.1446 0.62526 1.2255 0.63725 0.08089 0.01205 0.14708-1.9194 0.14705-4.2919zm-5.0508 1.5697c-1.0195-0.62158-1.4551-1.485-1.3649-2.7053 0.12529-1.6942 1.3364-2.8513 2.9843-2.8513 1.1702 0 2.0659 0.57543 2.6162 1.6808 0.55804 1.1208 0.4515 2.2052-0.30501 3.1043-1.0077 1.1976-2.6902 1.5279-3.9306 0.77153zm2.7043-0.49457c0.7325-0.3788 1.17-1.2245 1.17-2.2615 0-0.6639-0.1227-0.93636-0.66667-1.4803-0.56346-0.56347-0.80524-0.66668-1.5618-0.66668-0.71994 0-1.0296 0.11806-1.5822 0.60322-2.1474 1.8854 0.09741 5.1204 2.6406 3.8052zm-2.087-0.94605c-0.38143-0.32808-0.53381-0.6448-0.53381-1.1095 0-0.46466 0.1524-0.78137 0.53381-1.1095 0.687-0.59093 1.3862-0.58316 1.9914 0.02211 0.68546 0.68547 0.63874 1.5082-0.122 2.1483-0.74617 0.62786-1.1827 0.63918-1.8694 0.0484zm1.6924-0.72471c0.41748-0.78005-0.13316-1.4207-1.0355-1.2048-0.37773 0.09032-0.64558 0.84268-0.46633 1.3098 0.1732 0.4513 1.2442 0.37641 1.5018-0.10502zm-16.868 4.6643c-4.53e-4 -0.02698-0.21161-0.46447-0.46925-0.97226l-0.46843-0.92323-0.48116 0.97226-0.48116 0.97224h0.95041c0.52273 0 0.95004-0.02211 0.94959-0.04898zm0.41536-7.8649c1.0978-1.43 2.3878-2.2397 4.4777-2.8106 0.18076-0.049328-0.83752-1.1996-2.7941-3.1562l-3.0785-3.0785-6.1425 6.1425 0.86539 0.23018c2.1709 0.57739 4.0731 2.2133 4.9037 4.2174l0.44786 1.0805 0.33984-0.89529c0.18692-0.49242 0.6282-1.2709 0.98063-1.73zm-2.4928-1.4793c-2.7432-1.2458-2.2266-5.2553 0.74824-5.8069 1.4141-0.26224 2.9929 0.91462 3.3692 2.5114 0.30985 1.3148-0.82329 3.0681-2.2467 3.4763-0.87853 0.25196-0.9284 0.24714-1.8707-0.18081zm2.2807-0.70813c1.3406-0.69328 1.5625-2.8259 0.40192-3.8629-1.1075-0.98959-2.9879-0.62523-3.6172 0.70091-0.39682 0.83622-0.4044 1.3559-0.030364 2.0793 0.65962 1.2756 2.0049 1.7243 3.2456 1.0827zm-2.0388-0.89327c-0.3985-0.31346-0.51664-0.57923-0.51664-1.1622 0-1.386 1.4988-2.0485 2.4599-1.0873 0.64309 0.64309 0.62924 1.4742-0.03565 2.139-0.62223 0.62223-1.2135 0.6565-1.9076 0.11058zm1.4441-0.574c0.48476-0.48476 0.48743-0.62321 0.02303-1.1967-0.32578-0.40233-0.42938-0.42839-0.88235-0.22201-0.59329 0.27032-0.69468 1.0132-0.2051 1.5028 0.40362 0.40362 0.59161 0.38878 1.0644-0.084066zm36.903 50.786c-0.67721-0.28782-1.0473-1.3857-0.98031-2.9078 0.05765-1.3092 0.05765-1.3092 0.67138-1.3689l0.61373-0.05963 0.08267 1.2986c0.05389 0.84656 0.18156 1.3611 0.36666 1.4783 0.39173 0.24782 0.50392 0.23184 0.8582-0.12246 0.31635-0.31635 0.44308-2.4454 0.18549-3.1166-0.06743-0.17575-0.63776-0.66936-1.2674-1.0969-1.398-0.94934-1.6242-1.5423-1.5236-3.9927 0.06555-1.5956 0.10899-1.7488 0.62061-2.1889 0.41844-0.35992 0.7784-0.47322 1.5036-0.47322 0.52438 0 1.0963 0.05478 1.2708 0.12182 0.56688 0.21752 0.89114 1.1686 0.89114 2.6136v1.3823h-0.68627c-0.67624 0-0.68632-0.0124-0.68895-0.83333-0.0046-1.3756-0.1705-1.7455-0.75308-1.6772-0.42251 0.04957-0.5349 0.19432-0.66507 0.85689-0.08614 0.43854-0.08479 1.1432 0.0031 1.566 0.13358 0.6428 0.35072 0.90259 1.3261 1.5865 0.6415 0.44984 1.2735 1.0687 1.4045 1.3752 0.52612 1.2314 0.17972 4.6223-0.53859 5.2723-0.43961 0.39784-2.0338 0.56723-2.6947 0.2863zm21.5-0.09135c-0.8632-0.48755-0.95217-1.1323-0.95217-6.9v-5.3629h1.5686v5.0606c0 5.4682 0.06204 5.8245 0.99138 5.6934l0.47921-0.06761 0.05216-5.3431 0.05216-5.3431h1.5623v5.6753c0 5.6738-1.21e-4 5.6755-0.46062 6.2108-0.3871 0.45002-0.64529 0.54619-1.6176 0.60249-0.77283 0.04472-1.3292-0.03012-1.6754-0.22582zm11.032-0.03366c-0.8897-0.62318-1.0033-1.3045-1.0033-6.0173 0-5.8296 0.20451-6.4081 2.2657-6.4081 2.1806 0 2.5207 1.0124 2.4041 7.1569-0.0814 4.286-0.252 5.0171-1.2606 5.4006-0.75415 0.28672-1.8976 0.22394-2.4059-0.13206zm1.9733-2.3273c0.1699-0.96508 0.16132-7.0351-0.0117-7.8407-0.0774-0.36179-0.26982-0.61365-0.50305-0.65857-0.78445-0.15109-0.89396 0.41003-0.89113 4.5662 4e-3 4.5986 0.0444 4.8599 0.75593 4.777 0.4276-0.04978 0.53385-0.18794 0.64933-0.84388zm80.212 2.3472c-0.23549-0.16498-0.51933-0.62818-0.63076-1.0294-0.25062-0.90235-0.26253-9.0675-0.0149-10.136 0.24584-1.0604 0.62302-1.2798 2.2004-1.2798 2.3113 0 2.3743 0.1969 2.2806 7.1251l-0.0632 4.6742-0.55014 0.4729c-0.4428 0.38062-0.7691 0.4729-1.6721 0.4729-0.68953 0-1.2869-0.11555-1.5501-0.29987zm2.1781-1.906c0.20608-0.76889 0.13751-8.186-0.0794-8.5913-0.11158-0.20859-0.37324-0.37926-0.58134-0.37926-0.20806 0-0.46969 0.17064-0.58133 0.37926-0.21689 0.40529-0.28545 7.8224-0.0794 8.5913 0.0865 0.32272 0.2639 0.44118 0.66072 0.44118 0.39684 0 0.57425-0.11849 0.66074-0.44118zm-113.06 1.8735c-0.04741-0.08685 0.18404-2.8711 0.5143-6.1872l0.60048-6.0294h1.3302c1.1359 0 1.3303 0.05014 1.331 0.34313 3.93e-4 0.18872 0.22022 2.6373 0.48853 5.4412 0.2683 2.8039 0.48856 5.4289 0.48947 5.8333 0.0016 0.7246-0.0096 0.73529-0.76505 0.73529h-0.76671l-0.13883-1.6667c-0.13851-1.6631-0.14003-1.6667-0.68977-1.6667-0.58453 0-0.60554 0.0675-0.82355 2.6471-0.04436 0.52457-0.12731 0.5947-0.76679 0.64801-0.3944 0.03295-0.75586-0.01169-0.80326-0.09808zm2.6928-6.8735c-0.07685-1.1593-0.20551-2.2295-0.28594-2.3783-0.0804-0.14875-0.2075 0.64539-0.28244 1.7647-0.07494 1.1193-0.18128 2.1895-0.23637 2.3783-0.0776 0.26596 0.01736 0.34313 0.42218 0.34313h0.52228zm3.37 6.8791c-0.07189-0.07193-0.13071-2.4984-0.13071-5.3922v-5.2615h-0.68628c-0.66993 0-0.68628-0.01878-0.68628-0.78431v-0.7843h4.5098v1.5686h-1.5686v10.784h-0.6536c-0.35948 0-0.71242-0.05882-0.78432-0.13071zm5.9477-6.0458v-6.1765h3.9216v1.5686h-2.3529v3.7255h2.3529v1.5686h-2.3529v3.7255h2.3529v1.7647h-3.9216zm10.392 0.01169v-6.1883h1.6796c1.9334 0 2.2817 0.13401 2.6563 1.0219 0.4183 0.99156 0.36744 4.242-0.077 4.9202-0.24357 0.3717-0.29477 0.63552-0.16948 0.87364 0.09879 0.18765 0.23623 1.0029 0.30558 1.8117 0.06934 0.80882 0.17632 1.9779 0.23772 2.598l0.11165 1.1274h-0.79468c-0.91657 0-0.89828 0.05003-1.111-3.0359-0.12689-1.8404-0.29271-2.2582-0.8962-2.2582-0.33155 0-0.36712 0.22142-0.41716 2.598l-0.05478 2.598-0.73529 0.0608-0.7353 0.06091zm2.729-0.77676c0.14595-0.17589 0.20753-0.89915 0.17104-2.0098l-0.05698-1.7351-1.2745-0.12296v2.0713c0 2.0502 0.0046 2.0712 0.46618 2.0712 0.25643 0 0.56879-0.12363 0.6942-0.27471zm8.0553 0.76492v-6.1765h1.5815c0.86984 0 1.7597 0.09531 1.9774 0.21186 0.71407 0.38216 0.95092 1.366 0.95059 3.9485-4.1e-4 3.3022-0.51736 4.26-2.3036 4.2681l-0.63726 0.0023v3.9216h-1.5686zm2.8227 0.02941c0.19219-0.71646 0.12986-3.8574-0.0845-4.2579-0.1164-0.21749-0.40913-0.37927-0.68628-0.37927h-0.4833v5.2262l0.57051-0.08373c0.37688-0.05538 0.60889-0.22681 0.6836-0.50525zm2.4714-0.02941v-6.1765h3.9216v1.5686h-2.353v3.7255h2.353v1.5686h-2.353v3.7255h2.353v1.7647h-3.9216zm4.51 6.0294c1.3e-4 -0.08093 0.26472-2.7941 0.58802-6.0294 0.32333-3.2353 0.5879-5.9526 0.58801-6.0384 1.3e-4 -0.08582 0.59581-0.12993 1.3237-0.09808l1.3235 0.058 0.52666 5.5882c0.69213 7.3443 0.71344 6.6667-0.20966 6.6667-0.87349 0-0.99408-0.22383-1.0036-1.8627-7e-3 -1.1928-0.19325-1.5254-0.80617-1.4387-0.39405 0.0557-0.47578 0.1901-0.51711 0.85048-0.0269 0.43137-0.0985 1.1593-0.15906 1.6176-0.10824 0.82073-0.12164 0.83333-0.88228 0.83333-0.42476 0-0.7722-0.06623-0.77208-0.14705zm2.8722-5.5882c-0.0623-0.45832-0.17873-1.6716-0.25877-2.6961l-0.14552-1.8628-0.13968 1.3726c-0.0768 0.7549-0.19633 1.9681-0.26553 2.6961l-0.1259 1.3235h0.52433c0.50391 0 0.51993-0.0326 0.41107-0.83334zm2.7485 5.6046c-0.0719-0.07193-0.13071-2.8513-0.13071-6.1765v-6.0458h0.95589c0.88319 0 0.96492 0.041 1.0749 0.53922 0.0654 0.29658 0.37975 1.5098 0.69844 2.6961l0.57945 2.1569 0.0124-2.6961 0.0124-2.6961h1.5686v12.353h-0.4711c-0.51613 0-0.38279 0.34172-2.0166-5.1684l-0.74761-2.5213-0.0532 3.8448-0.0532 3.8448h-0.64945c-0.3572 0-0.70827-0.05882-0.78016-0.13071zm8.0392 0c-0.0719-0.07193-0.13071-2.8513-0.13071-6.1765v-6.0458h1.8258c2.0864 0 2.51 0.22415 2.8694 1.5183 0.26426 0.95162 0.2665 8.3566 2e-3 9.3061-0.33158 1.1939-0.9509 1.5285-2.829 1.5285-0.88414 0-1.6664-0.05882-1.7383-0.13071zm3.0114-2.137c0.10509-0.27663 0.19123-2.0797 0.19123-4.0068 0-4.1132-0.0944-4.5098-1.0736-4.5098h-0.69113v9.0196h0.69113c0.56147 0 0.727-0.09436 0.88235-0.50295zm2.5442-3.9088v-6.1765h3.9216v1.5686h-2.3529v3.7255h2.3529v1.5686h-2.3529v3.7255h2.3529v1.7647h-3.9216zm8.4314 0.79615v-5.404h-1.5686v-1.5809l4.6078 0.11048v0.68628c0 0.65095-0.0377 0.68939-0.73217 0.74694l-0.73216 0.0607-0.0522 5.3315-0.0522 5.3315-0.73529 0.0608-0.73531 0.06091zm3.6695 5.2589c-0.077-0.077-0.14006-2.8606-0.14006-6.1858v-6.0458h1.7703l-0.0519 6.1275-0.0518 6.1275-0.69328 0.05836c-0.3813 0.03224-0.7563-0.0046-0.83333-0.08174zm2.5397-0.0096c-0.0719-0.07193-0.13071-2.8513-0.13071-6.1765v-6.0454h1.9068l0.66425 2.598 0.66426 2.598 0.1094-5.1961h1.5572v12.353h-0.46179c-0.43036 0-0.54048-0.26341-1.6176-3.8691l-1.1558-3.8691-0.0532 3.8691-0.0532 3.8691h-0.64944c-0.3572 0-0.70828-0.05882-0.78016-0.13071zm5.5555-6.0458v-6.1761h3.9216v1.5686h-2.3529v3.7255h2.3529v1.5686h-2.3529v3.7255h2.3529v1.7647h-3.9216zm4.902 0.01169v-6.1883h1.6796c1.9334 0 2.2817 0.13401 2.6563 1.0219 0.41014 0.97222 0.36081 4.2519-0.0739 4.9154-0.25009 0.38167-0.29084 0.63806-0.15722 0.98949 0.0992 0.26089 0.23404 1.1252 0.29962 1.9208 0.0657 0.79558 0.16665 1.9097 0.22451 2.4759l0.10523 1.0294h-0.78517c-0.94114 0-0.92943 0.02906-1.1079-2.7451-0.13719-2.1328-0.28392-2.549-0.89856-2.549-0.33158 0-0.36712 0.22142-0.41718 2.598l-0.0547 2.598-0.73531 0.0608-0.73529 0.06091zm2.729-0.77676c0.14594-0.17589 0.20749-0.89916 0.17103-2.0098l-0.057-1.7351-1.2745-0.12296v2.0713c0 2.0502 5e-3 2.0713 0.46618 2.0713 0.25639 0 0.56879-0.12363 0.69421-0.27471zm2.7612 0.76492v-6.1765h3.9216v1.5686h-2.3529v3.7255h2.3766l-0.0609 0.7353-0.0608 0.73529-2.2549 0.11764v3.6863l2.2549 0.11764 0.0603 0.83334 0.0603 0.83332h-3.9441zm5.8824 0.78432v-5.3922h-1.5686v-1.5686h4.7059v1.5686h-1.5686v10.784h-1.5686zm6.0786 4.4608c1.9e-4 -0.82936 0.14942-1.1508 1.3624-2.9345 0.74921-1.1017 1.4155-2.2929 1.4807-2.6471 0.0652-0.35419 0.0918-1.4822 0.0592-2.5067l-0.0593-1.8627-0.53911-0.06208c-0.68341-0.07863-0.93148 0.4927-0.93148 2.1455v1.1755l-0.73529-0.06091c-0.87411-0.07235-0.94045-0.29179-0.73878-2.4438 0.18329-1.956 0.6121-2.4209 2.233-2.4209 0.64339 0 1.3126 0.05478 1.4872 0.12182 0.56204 0.21565 0.91615 1.2434 1.028 2.9835 0.15814 2.4608-0.13517 3.577-1.5207 5.7866-0.64084 1.022-1.1652 1.91-1.1652 1.9733 0 0.06332 0.57353 0.11523 1.2745 0.11523h1.2745v1.5686h-4.5098zm10.784 0.01772c0-0.79586 0.15282-1.1368 1.1853-2.6442 1.6462-2.4035 1.7985-2.8382 1.7985-5.1322 0-1.0637-0.0876-2.0216-0.19477-2.1288-0.10708-0.10711-0.39988-0.16526-0.65054-0.12915-0.5442 0.07841-0.71903 0.5902-0.7464 2.1853l-0.0195 1.1393-0.73529-0.06091-0.7353-0.0608 0.0202-1.605c0.0213-1.7183 0.30918-2.7068 0.87634-3.0103 0.39274-0.21019 2.3273-0.256 2.8203-0.06679 0.60884 0.23365 0.95105 1.2895 1.045 3.2242 0.11568 2.3817-0.20049 3.5252-1.5437 5.5829-1.4102 2.1602-1.4152 2.0515 0.0943 2.0515h1.2955v1.5686h-4.5098zm7.647-0.34044v-1.2778l-1.4216-0.05754-1.4216-0.05765 0.0188-0.78431c0.0103-0.43137 0.61916-2.6152 1.3528-4.8529l1.334-4.0686h1.7061v4.2157c0 3.6166 0.0418 4.2157 0.29413 4.2157 0.20541 0 0.29413 0.20696 0.29413 0.68627 0 0.46929-0.0901 0.68628-0.28477 0.68628-0.21236 0-0.29959 0.3116-0.34314 1.2255l-0.0584 1.2255-0.73529 0.0608-0.73531 0.06091zm-7e-3 -4.6773-7e-3 -2.0098-0.57839 1.7647c-0.31808 0.97059-0.57944 1.875-0.58074 2.0098-1e-3 0.14212 0.24473 0.24509 0.58587 0.24509h0.58823zm-172.8-3.8602c-1.1896-1.3167-1.1583-3.0728 0.07657-4.3077 0.72958-0.72957 1.7189-0.94055 2.7755-0.59186 2.0625 0.68071 2.7444 2.8952 1.3878 4.5074-0.69328 0.82391-1.4466 1.1647-2.5745 1.1647-0.87728 0-1.0323-0.07193-1.6653-0.77262zm2.9334-0.13528c1.0875-0.51607 1.6081-1.8502 1.1499-2.9469-0.34183-0.81812-1.7509-1.538-2.6317-1.3446-1.2372 0.27174-1.9386 1.7852-1.4665 3.1642 0.47615 1.3909 1.5375 1.7967 2.9483 1.1272zm-1.7605-1.2154c-0.43855-0.48459-0.41927-1.6517 0.03405-2.062 0.82539-0.74696 2.1904-0.1569 2.1904 0.94688 0 1.1752-1.4929 1.9236-2.2245 1.1151zm1.3379-0.54756c0.3776-0.37761 0.32594-0.83545-0.12641-1.1203-0.65145-0.41022-1.2742 0.6412-0.71251 1.2029 0.31164 0.31163 0.45919 0.29711 0.83893-0.08256zm10.929 2.3448c-1.4372-0.70837-2.0606-2.8165-1.2261-4.1461 0.45116-0.71882 1.7369-1.3996 2.6539-1.4051 1.9519-0.01169 3.2578 2.4722 2.3288 4.43-0.64835 1.3663-2.2746 1.8517-3.7566 1.1212zm2.783-0.86549c0.60294-0.71656 0.79194-1.3572 0.63374-2.1481-0.18602-0.93018-0.70272-1.543-1.5031-1.7828-0.64616-0.19361-0.86114-0.16728-1.6149 0.19757-1.2755 0.61748-1.6596 1.7424-1.0183 2.9826 0.39744 0.76855 1.3798 1.3525 2.277 1.3534 0.56141 5.67e-4 0.82851-0.13075 1.2255-0.60262zm-2.5406-1.0544c-0.58592-0.58593-0.61591-1.2611-0.08147-1.8347 0.77949-0.83668 2.3453-0.26525 2.3453 0.85592 0 0.63609-0.73231 1.4601-1.2977 1.4601-0.26667 0-0.70146-0.21657-0.96616-0.48128zm1.4795-0.49912c0.1491-0.27865 0.1491-0.50568 0-0.78431-0.26894-0.50248-0.90625-0.50491-1.1741-0.0046-0.1648 0.30791-0.12586 0.46927 0.18921 0.78431 0.49871 0.49872 0.71985 0.49973 0.98489 0.0046zm35.95-2.9477c-1.9537-0.34962-3.2338-0.97105-4.3974-2.1346-1.2988-1.2988-1.8569-2.5859-2.2598-5.2118-0.27754-1.8089-0.36553-6.4761-0.14701-7.7983l0.12221-0.73944 7.4964 0.1063 0.11317 2.6471c0.06222 1.4559 0.18287 2.8928 0.26809 3.1931 0.39862 1.405 3.5503 1.5382 4.2486 0.17947 0.22256-0.433 0.28998-3.2798 0.37016-15.627l0.09804-15.098 8.5584-0.10584-0.07994 15.543c-0.06789 13.2-0.12809 15.829-0.39959 17.44-0.76371 4.5307-2.1745 6.4702-5.3339 7.3329-1.3837 0.37785-7.071 0.55774-8.6575 0.27383zm17.712-0.51431c-0.07299-0.07296-0.13273-9.1189-0.13273-20.102v-19.969l17.745 0.10213v8.4314l-9.3137 0.10514v6.8557h9.2157v8.2353h-9.2157v7.2478l9.3137 0.10516v9.0196l-8.7398 0.05106c-4.8069 0.02835-8.7995-0.0096-8.8725-0.08174zm20.978-0.0023c-0.0719-0.07193-0.13072-9.116-0.13072-20.098v-19.967l6.4216 0.00347c3.5319 0.00231 7.0392 0.09194 7.7941 0.19954 3.6756 0.52392 5.3568 1.8712 6.4222 5.1467 0.32018 0.98431 0.41448 1.9216 0.49066 4.8772 0.13872 5.3816-0.23591 7.0096-1.9552 8.4961l-0.8401 0.72638 0.4821 0.3241c2.4197 1.6267 2.8372 2.9554 2.8435 9.0496 5e-3 4.439-0.16625 5.6222-1.096 7.5899-1.0165 2.1514-2.7987 3.2155-5.9992 3.5822-1.902 0.21791-14.225 0.27737-14.433 0.06959zm12.313-8.7662c0.59459-0.59457 0.76865-1.7418 0.65346-4.307-0.0999-2.2252-0.46069-3.2704-1.2536-3.6316-0.26947-0.12278-1.1476-0.22324-1.9513-0.22324h-1.4614v8.6274h1.7736c1.6054 0 1.8178-0.04412 2.2392-0.46558zm-0.80835-15.046c0.72016-0.32813 0.95755-1.0527 1.0632-3.245 0.11955-2.4819-0.0486-3.6524-0.61984-4.3166-0.39672-0.46124-0.61757-0.52705-2.0462-0.60976l-1.6015-0.092749v8.4818h1.3633c0.74983 0 1.5783-0.09796 1.8411-0.2177zm12.678 3.8472v-20.1h17.647v8.6274h-9.2157v6.8555l4.5588 0.05258 4.5588 0.05269v8.0392l-4.5588 0.05269-4.5588 0.05258v7.2477h9.2229l-0.0527 4.5588-0.0527 4.5588-17.549 0.10212zm20.875 19.853c-0.0518-0.13596-0.0715-9.159-0.0437-20.051l0.0506-19.804h8.4314l0.0503 15.437 0.0503 15.437 8.331 0.10586v9.0196l-8.3877 0.0512c-6.6055 0.04029-8.4077-0.0012-8.4819-0.19609zm-143.14-2.9737c-0.9743-0.42438-1.6569-1.3886-1.6569-2.3403 0-2.2793 2.2508-3.8252 4.1975-2.8829 1.5365 0.74383 2.1541 2.7929 1.2437 4.1266-0.83641 1.2253-2.4291 1.6869-3.7842 1.0966zm2.14-0.58278c0.77768-0.32492 1.4972-1.1856 1.4972-1.791 0-0.67936-0.53467-1.8005-1.0212-2.1412-0.63611-0.44556-1.9536-0.39342-2.5838 0.10224-1.8986 1.4935-1.209 3.8168 1.2093 4.0736 0.13827 0.01453 0.54257-0.09496 0.89845-0.24364zm-1.0518-0.8511c-1.0389-0.37508-1.2688-1.353-0.49911-2.1228 0.92441-0.92441 2.2638-0.43494 2.2638 0.82729 0 0.8574-0.98178 1.5781-1.7647 1.2955zm1.0784-1.2101c0-0.25785-0.15994-0.56668-0.35542-0.68626-0.28972-0.17727-0.42619-0.13121-0.73825 0.2491-0.4738 0.57741-0.18373 1.0545 0.58669 0.96494 0.38746-0.04503 0.50698-0.16948 0.50698-0.52776zm28.392 2.5119c-2.1061-1.0425-1.9939-4.0773 0.19038-5.1483 1.104-0.54131 2.1817-0.29662 3.2063 0.72797 1.4778 1.4778 1.2929 3.4239-0.41644 4.3821-0.98201 0.55051-1.921 0.56257-2.9802 0.03823zm2.2322-0.3895c1.37-0.51908 1.831-1.7884 1.1369-3.1306-0.59071-1.1423-2.5279-1.5744-3.4031-0.75907-1.2662 1.1796-1.0355 3.1743 0.44137 3.8171 0.75229 0.3274 1.1143 0.34182 1.8248 0.0726zm-1.6411-0.9687c-1.2907-0.52006-0.88786-2.5477 0.50622-2.5477 0.674 0 1.3927 0.73279 1.3927 1.42 0 0.31993-0.194 0.66495-0.51664 0.91873-0.56287 0.44275-0.73677 0.46904-1.3823 0.20895zm1.2813-1.0641c0.07321-0.38558-0.42981-0.89532-0.88355-0.89532-0.41828 0-0.7231 0.76096-0.44099 1.1009 0.33824 0.40758 1.2345 0.26851 1.3245-0.20555zm-31.664-9.906c-1.4695-0.34962-2.4244-1.6047-2.4244-3.1864 0-0.7195 0.10612-0.96372 0.63726-1.4664 0.85782-0.81194 1.3537-1.0424 2.242-1.0421 0.99823 4.05e-4 2.0134 0.53707 2.558 1.3522 0.51381 0.76912 0.56652 1.6423 0.15814 2.6197-0.30238 0.72369-1.3256 1.7141-1.7709 1.7141-0.14467 0-0.38055 0.03497-0.52417 0.07758-0.14362 0.04273-0.53778 0.01184-0.8759-0.06867zm1.7054-0.79978c0.44614-0.23877 1.1642-1.5662 1.1642-2.1522 0-1.0477-1.2022-2.1549-2.3399-2.1549-0.66502 0-1.6984 0.50669-2.0463 1.0033-0.66295 0.94649-0.10323 2.6677 1.0587 3.2557 0.59075 0.29892 1.6506 0.32254 2.1632 0.04817zm-1.8966-1.0756c-0.62318-0.62318-0.56301-1.3831 0.15156-1.9142 1.325-0.98474 2.9005 0.84825 1.7328 2.016-0.53362 0.53362-1.2898 0.49278-1.8843-0.10179zm1.5514-0.50882c0.31638-0.50246 0.0214-0.95801-0.62031-0.95801-0.69236 0-0.88801 0.39166-0.48386 0.96865 0.33213 0.47419 0.80175 0.46966 1.1042-0.01038zm29.058 2.4325c-0.86838-0.21505-1.6457-1.0346-1.9765-2.0839-0.31592-1.0023-0.3133-1.0732 0.07247-1.9453 0.76589-1.7314 3.061-2.2526 4.6345-1.0524 1.2431 0.94814 1.3583 2.5671 0.28023 3.9377-0.65638 0.83446-2.0785 1.3748-3.0107 1.1439zm1.8692-0.94283c0.72419-0.3745 1.1701-1.2221 1.1701-2.2244 0-0.62652-0.11658-0.87474-0.60335-1.2843-0.78916-0.66405-1.419-0.80602-2.3451-0.52857-1.3948 0.4179-1.9588 1.8211-1.2684 3.1561 0.59085 1.1426 1.8417 1.5044 3.0468 0.88121zm-2.3451-1.0035c-0.53368-0.67846-0.51307-1.1592 0.07491-1.7472 0.55901-0.55901 0.8878-0.59455 1.6853-0.18213 0.78865 0.40783 0.82005 1.4432 0.06183 2.0396-0.70037 0.55092-1.3321 0.51269-1.8221-0.11024zm1.4521-0.38951c0.42731-0.42732 0.29941-0.94192-0.2537-1.0207-0.44309-0.06311-1.0166 0.25524-1.0166 0.56426 0 0.21002 0.57159 0.77432 0.78431 0.77432 0.09241 0 0.31114-0.14306 0.48599-0.31792zm-22.937-6.7297c-1.1771-0.48021-2.0259-2.1193-1.779-3.4354 0.18076-0.96352 1.3069-2.1915 2.1192-2.3107 2.0138-0.29555 4.0736 1.7847 3.6072 3.6429-0.37778 1.5052-2.5614 2.6686-3.9474 2.1032zm2.3194-0.93412c0.6766-0.3411 1.1693-1.4237 0.98627-2.167-0.31169-1.2657-1.2474-2.0082-2.531-2.0082-2.154 0-2.6462 3.5461-0.61282 4.415 0.65996 0.28202 1.2531 0.21608 2.1575-0.23988zm-2.0252-0.64574c-0.5007-0.5007-0.51872-1.5894-0.03358-2.0284 0.83572-0.75632 2.1904-0.01619 2.1904 1.1966 0 1.0964-1.3656 1.6231-2.1569 0.83181zm1.3333-0.43137c0.35331-0.35331 0.28347-0.9016-0.14397-1.1304-0.58029-0.31056-0.77851-0.24767-0.9134 0.28976-0.20399 0.81277 0.51422 1.3837 1.0574 0.8406zm10.877 1.8214c-1.6042-0.74831-2.131-2.7064-1.1259-4.1855 0.61396-0.90352 1.4546-1.3545 2.556-1.3711 1.556-0.02353 2.633 1.1595 2.633 2.8921 0 2.2967-2.0166 3.6191-4.0631 2.6645zm2.7901-1.0248c0.51115-0.49426 0.58824-0.70792 0.58824-1.6306 0-0.9115-0.08327-1.1494-0.58824-1.6807-0.53586-0.56385-0.67278-0.61105-1.5378-0.53011-1.2715 0.11895-2.0912 0.90616-2.2305 2.142-0.08193 0.72707-0.01814 0.96344 0.38846 1.436 0.5666 0.65871 1.6016 1.0786 2.3015 0.93368 0.26961-0.05581 0.7549-0.35744 1.0784-0.67026zm-2.6129-0.42682c-0.55854-0.59455-0.5397-1.2154 0.05494-1.81 0.59616-0.59617 1.3379-0.61692 1.864-0.05211 0.50992 0.54732 0.50772 1.1455-0.0064 1.7993-0.51559 0.65546-1.3305 0.68224-1.9124 0.06288zm1.5344-0.52659c0.14999-0.28028 0.14822-0.5074-0.0064-0.79614-0.26164-0.48887-0.73046-0.43121-1.1065 0.1361-0.24232 0.36562-0.23733 0.45835 0.03961 0.7353 0.42667 0.42667 0.81933 0.39913 1.0732-0.07527z" stroke-width="1.1579"/></svg>
