<?xml version="1.0" encoding="UTF-8"?>
<svg width="60" height="60" version="1.1" viewBox="0 0 60 60" xmlns="http://www.w3.org/2000/svg"><rect width="60" height="60" rx="10" fill="#fff"/><path d="m30.002 3-2.2069 2.2055c-1.214 1.2126-2.208 2.2631-2.208 2.3355 0 0.07263 0.28098 0.1613 0.62584 0.19688 2.9873 0.30816 4.5769 4.072 2.5678 6.0809-0.77594 0.77591-2.2429 1.3533-3.2159 1.2656-1.273-0.11466-2.1971-0.80232-2.7741-2.0625-0.59427-1.2979-0.44106-2.8734 0.38558-3.9562 0.2259-0.29592 0.41137-0.59095 0.41137-0.65508 0-0.074183-1.1563-0.11602-3.1773-0.11602h-3.1761v3.1758c0 3.3787 0.02234 3.5016 0.54029 2.9285 0.12325-0.1364 0.48862-0.38692 0.81219-0.55781 0.52247-0.27592 0.72013-0.31172 1.765-0.31172 1.0485 0 1.2408 0.03489 1.765 0.31406 1.2184 0.64878 1.9339 1.741 1.9385 2.959 0.0032 0.81606-0.53795 2.2363-1.0923 2.8676-0.69799 0.7949-1.8604 1.1712-2.9792 0.96445-1.7325-0.32022-2.8954-1.4883-3.2593-3.2719-0.07876-0.38607-0.17133-0.72913-0.2051-0.76289-0.03372-0.03372-1.0642 0.94208-2.2901 2.1691l-2.2291 2.2312 2.2268 2.2289c1.2247 1.2258 2.2634 2.207 2.3076 2.1797 0.04422-0.02736 0.11514-0.31627 0.15822-0.64102 0.26138-1.9702 1.9347-3.4573 3.8945-3.4629 1.5103-0.0041 2.5358 0.78267 3.1491 2.4164 0.58464 1.5574 0.3396 2.8246-0.73367 3.7922-1.3771 1.2413-3.556 1.3509-4.9974 0.25078-0.29594-0.22588-0.59099-0.41133-0.65514-0.41133-0.0742 0-0.11603 1.1562-0.11603 3.177v3.1758h3.1761c2.0209 0 3.1773-0.04182 3.1773-0.11602 0-0.06414-0.18547-0.35916-0.41137-0.65508-0.5603-0.73398-0.81356-1.6524-0.73015-2.6473 0.17246-2.0566 1.7599-3.5437 3.5992-3.3727 0.96363 0.08964 2.3279 0.74829 2.8761 1.3887 1.8007 2.1035 0.18989 5.6066-2.7366 5.9531-0.32855 0.03892-0.59654 0.12913-0.59654 0.20039 0 0.07128 0.9918 1.1229 2.2045 2.3367l2.2045 2.2066 2.208-2.2055c1.2141-1.2128 2.1899-2.2576 2.1682-2.3227-0.02166-0.06507-0.32685-0.15878-0.67741-0.20859-1.9699-0.27972-3.4064-1.9468-3.3999-3.9445 0.0049-1.4938 0.7347-2.4526 2.3334-3.0691 1.0422-0.40189 1.7852-0.46049 2.5209-0.19805 1.4407 0.51396 2.3363 1.8662 2.3416 3.5367 0.0031 0.96522-0.28046 1.8171-0.84149 2.5254-0.27512 0.34732-0.33323 0.49088-0.21682 0.53555 0.08737 0.03355 1.5345 0.04652 3.2159 0.0293l3.0565-0.03164 0.0293-3c0.0158-1.65-0.01768-3.0734-0.07501-3.1629-0.08461-0.13216-0.17962-0.10705-0.50044 0.13359-2.0276 1.5209-4.7641 1.0735-5.9092-0.9668-0.31373-0.55902-0.3601-0.7528-0.34925-1.4707 0.02304-1.5125 0.85174-2.9849 1.9971-3.5473 2.2083-1.0842 4.9807 0.5148 5.3279 3.0727 0.04838 0.35639 0.12531 0.68546 0.17111 0.73125 0.04578 0.04578 1.0999-0.93456 2.3428-2.1773l2.2596-2.2594-2.2666-2.2641c-2.3869-2.3843-2.4909-2.4492-2.4952-1.5328-0.0043 0.9072-0.83752 2.2638-1.7392 2.8312-0.75691 0.47635-1.3651 0.65428-2.2127 0.64805-1.3775-0.01038-2.279-0.6636-2.9722-2.1527-0.75451-1.6209-0.49992-3.1348 0.70085-4.1625 1.3769-1.1784 3.6524-1.2057 5.0771-0.06094 0.3708 0.29794 0.48385 0.34001 0.56724 0.20977 0.05724-0.08958 0.09191-1.5129 0.07618-3.1629l-0.0293-3-3.2054-0.031642c-1.7634-0.017235-3.2066-0.00353-3.2066 0.029302 0 0.032843 0.18062 0.29514 0.40082 0.58359 1.163 1.5234 1.0475 3.8085-0.26018 5.1645-0.68245 0.70772-1.2415 0.94956-2.1998 0.95508-1.2797 0.0071-2.8147-0.7021-3.3835-1.5633-0.69219-1.048-0.75012-2.5377-0.14064-3.6574 0.63276-1.1625 2.0707-2.127 3.1691-2.127 0.22025 0 0.4372-0.059298 0.48169-0.13125 0.04717-0.07638-0.84387-1.0557-2.1401-2.3531zm-0.06095 0.64805 1.8471 1.8469c1.1741 1.174 1.7856 1.8642 1.6771 1.8938-1.2541 0.34254-2.0286 0.82833-2.6874 1.6863-0.21148 0.27546-0.47618 0.74283-0.58834 1.0383l-0.20392 0.53672-0.26839-0.64805c-0.49841-1.2025-1.6402-2.1836-2.9429-2.5301l-0.51919-0.13828zm0.11134 1.0359c-0.10756-0.00612-0.21506 2.539e-4 -0.32112 0.019922-1.7851 0.33096-2.095 2.7365-0.44887 3.484 0.56544 0.25677 0.5956 0.25899 1.1228 0.10781 0.85413-0.24492 1.5337-1.2971 1.3478-2.0859-0.19757-0.83831-0.94768-1.4829-1.7006-1.5258zm-0.03984 0.42305c0.3156 0.00659 0.63095 0.11484 0.88016 0.3375 0.69642 0.6222 0.56301 1.902-0.24143 2.318-0.74449 0.38496-1.552 0.11614-1.9478-0.64922-0.22444-0.43404-0.21936-0.74632 0.01875-1.248 0.23601-0.4973 0.76435-0.76918 1.2904-0.7582zm-0.13947 0.50391c-0.40428 0.048744-0.75593 0.399-0.75593 0.91875 0 0.34978 0.07145 0.50919 0.31058 0.69727 0.4165 0.32755 0.77166 0.30654 1.145-0.066797 0.39897-0.39888 0.40699-0.89735 0.02109-1.2832-0.21626-0.21627-0.4782-0.29526-0.72077-0.26602zm0.19924 0.34922c0.07395 0.018605 0.13783 0.083208 0.23557 0.20391 0.27867 0.34409 0.27682 0.4275-0.01407 0.71836-0.2837 0.28371-0.39654 0.29256-0.63873 0.050391-0.29377-0.29376-0.23294-0.74015 0.12306-0.90234 0.1359-0.061914 0.22022-0.088917 0.29417-0.070312zm-12.368 2.8043h2.5983c1.429 0 2.5784 0.039323 2.5538 0.087889-0.62269 1.2247-0.73467 1.5621-0.77586 2.3238-0.04157 0.7689 0.08966 1.379 0.4981 2.3133 0.07165 0.1639-0.03395 0.14749-0.64577-0.09961-0.62712-0.25316-0.87508-0.2891-1.7545-0.2543-0.87434 0.03459-1.1302 0.09578-1.7486 0.41484l-0.72546 0.37383zm19.319 0h5.2728v2.5887c1.8e-5 1.4235-0.04052 2.5818-0.08907 2.5746-0.04855-0.0072-0.37892-0.17894-0.73484-0.38203-0.61236-0.34939-0.7133-0.36914-1.8822-0.36914-1.0227 0-1.3315 0.04463-1.7931 0.25781l-0.55787 0.25664 0.22502-0.43945c0.58814-1.1527 0.54977-2.6586-0.09728-3.8531zm3.2136 0.1957c-0.98884 0-1.7156 0.69442-1.7908 1.7109-0.05413 0.73218 0.20746 1.2501 0.81922 1.623 0.74431 0.45382 1.7534 0.25567 2.358-0.46289 0.45395-0.53946 0.51769-1.1896 0.18283-1.8621-0.33021-0.66322-0.8671-1.009-1.5693-1.009zm-20.421 0.0082c-1.7391-0.12299-2.6316 2.2187-1.0524 3.2965 0.51119 0.34889 1.4287 0.36081 1.9783 0.02578 0.53228-0.32454 0.89124-1.1411 0.78289-1.7824-0.10795-0.6387-0.73285-1.3246-1.3501-1.4813-0.12298-0.031223-0.24269-0.050393-0.35863-0.058597zm20.436 0.38438c0.45398 0 0.59948 0.061533 0.93759 0.39961 0.32641 0.32636 0.39965 0.48994 0.39965 0.88828 0 0.6222-0.26248 1.1298-0.70202 1.357-1.5261 0.78912-2.8731-1.1516-1.5845-2.2828 0.33159-0.2911 0.51731-0.36211 0.94931-0.36211zm-20.587 0.00468c0.24543-0.00855 0.50193 0.045135 0.75007 0.17344 0.74801 0.38676 0.9469 1.5444 0.37504 2.1844-0.38062 0.42592-1.1779 0.57777-1.6701 0.31758-0.37508-0.19836-0.82742-0.8709-0.82742-1.2305 0-0.83082 0.6361-1.4193 1.3724-1.4449zm20.586 0.4793c-0.20181-0.00216-0.40917 0.085221-0.6153 0.2625-0.22887 0.19688-0.32112 0.38683-0.32112 0.66562 0 0.27882 0.09224 0.46878 0.32112 0.66562 0.41206 0.35447 0.67385 0.34742 1.1216-0.0293 0.45649-0.38406 0.48398-0.87778 0.07267-1.2891-0.18158-0.18158-0.37715-0.27315-0.57896-0.27539zm-20.615 0.030465c-0.09443 0.010278-0.19287 0.036558-0.29417 0.078516-0.68888 0.2853-0.6461 1.3552 0.06563 1.6512 0.84859 0.35292 1.6289-0.72219 1.0079-1.3887-0.24159-0.25927-0.49609-0.37182-0.77938-0.34102zm6.5502 0.16055c-0.1489-0.01934-0.30017-0.01983-0.45122 0.0023-0.48743 0.07152-1.1631 0.80822-1.2716 1.3863-0.14816 0.78966 0.36135 1.7732 1.0677 2.0613 0.83168 0.33924 2.1419-0.35899 2.3686-1.2621 0.24488-0.97555-0.67117-2.0525-1.7134-2.1879zm7.707 0.0023c-0.6609 0.01-1.1657 0.28054-1.5341 0.82266-0.60312 0.88746-0.28755 2.0623 0.67507 2.5113 1.228 0.57276 2.4389-0.22042 2.4389-1.5984 0-1.0396-0.64615-1.7497-1.5798-1.7355zm-14.14 0.20276c0.05854 0.0058 0.11842 0.02483 0.17931 0.05742 0.29549 0.1581 0.41907 0.55777 0.23909 0.77461-0.17192 0.20714-0.60226 0.2228-0.79578 0.0293-0.34522-0.34516-0.03243-0.90225 0.37738-0.86133zm20.638 0.03281c0.30961 0.0754 0.44806 0.37906 0.26018 0.73008-0.15458 0.28886-0.79733 0.33406-0.90126 0.06328-0.10756-0.28027 0.05344-0.73214 0.28011-0.78633 0.13536-0.03237 0.25777-0.03217 0.36097-7e-3zm-14.394 0.14652c0.77024 0 1.3319 0.44527 1.5189 1.2047 0.10983 0.44598-0.18586 1.0961-0.59186 1.3008-0.54269 0.27357-0.89904 0.31218-1.295 0.14297-1.2201-0.52134-0.92452-2.6484 0.368-2.6484zm7.7902 0.03164c0.51906-0.04857 0.60081-0.01956 0.92236 0.31875 0.30301 0.31878 0.35277 0.46091 0.35277 1.0078-1e-6 0.55361-0.04606 0.68196-0.35277 0.97852-0.19412 0.18769-0.48516 0.36847-0.64694 0.40195-0.41998 0.08695-1.0418-0.16493-1.3818-0.56016-0.24398-0.28349-0.28122-0.42504-0.23205-0.86128 0.08359-0.7415 0.57544-1.2142 1.3384-1.2855zm-0.0375 0.68672c-0.19545 0.0055-0.39658 0.09771-0.57545 0.27656-0.35682 0.35676-0.36797 0.7296-0.03281 1.0863 0.34917 0.37162 0.838 0.3546 1.1474-0.03867 0.3085-0.39228 0.31067-0.7509 0.0047-1.0793-0.15785-0.16944-0.34836-0.25039-0.5438-0.24492zm-7.6449 0.0012c-0.14673 0.01082-0.29186 0.06819-0.41723 0.18164-0.29111 0.2634-0.27935 0.91599 0.02109 1.2164 0.47482 0.47478 1.2939 0.15862 1.2939-0.49922 0-0.54575-0.45756-0.93126-0.89774-0.89883zm-0.05743 0.35742c0.08338-0.02644 0.20093 0.01 0.37504 0.10312 0.25649 0.13728 0.29756 0.46653 0.08555 0.67852-0.32594 0.32586-0.75645-0.01624-0.63404-0.50391 0.04047-0.16123 0.09007-0.25128 0.17345-0.27773zm7.7047 0.01289c0.11816-0.01454 0.22739 0.05021 0.30589 0.19688 0.09278 0.17324 0.09469 0.30996 0.0047 0.47812-0.15234 0.28464-0.38857 0.30053-0.64459 0.04453-0.16618-0.16617-0.16884-0.22125-0.02344-0.44062 0.11282-0.17019 0.2393-0.26438 0.35746-0.27891zm-3.7844 1.1543 0.28128 0.5543c0.1546 0.30467 0.281 0.5674 0.28128 0.58359 2.7e-4 0.01612-0.25592 0.0293-0.56959 0.0293h-0.57076l0.28831-0.58359zm-0.14884 1.5164c0.85118-0.04825 1.7239 0.37584 2.0803 1.1836 0.15328 0.34736 0.25724 0.45341 0.39027 0.39609 0.61296-0.26414 1.0655-0.319 1.5201-0.18281 1.271 0.38076 2.0246 1.8506 1.4826 2.8898-0.20697 0.39683-0.22894 0.35919 0.42309 0.69258 0.80013 0.40914 0.99268 0.76243 0.99268 1.827 0 0.76573-0.04341 0.96402-0.28362 1.3008-0.15584 0.21844-0.51044 0.49736-0.78758 0.61992l-0.50396 0.22266 0.16994 0.40547c0.36778 0.88014 0.04933 1.9231-0.76765 2.5148-0.71605 0.51863-1.3365 0.57261-2.2584 0.19687-0.13964-0.0569-0.2194-0.0021-0.2801 0.19336-0.15475 0.49804-0.55462 0.94537-1.0431 1.1672-0.52157 0.23688-1.3644 0.27937-1.8353 0.09258-0.44326-0.1758-1.0386-0.80326-1.1216-1.1812-0.08671-0.39456-0.03425-0.38435-0.77586-0.1418-0.48714 0.1593-0.66954 0.16898-1.0536 0.05391-0.53435-0.16008-1.2182-0.72054-1.4662-1.2-0.2164-0.41832-0.21889-1.3637-0.0047-1.7742 0.18119-0.34725 0.13908-0.44883-0.18518-0.44883-0.37 0-1.1433-0.80165-1.2868-1.3348-0.29457-1.0939 0.1392-2.1437 1.0606-2.5664 0.54807-0.25142 0.55844-0.26606 0.40434-0.56133-0.20804-0.39864-0.20296-1.3472 0.0094-1.7578 0.51647-0.99866 1.6928-1.5175 2.5901-1.1426 0.5931 0.24778 0.62311 0.24126 0.70906-0.15 0.04065-0.18508 0.2327-0.50009 0.42778-0.69961 0.37912-0.38772 0.88279-0.58628 1.3935-0.61523zm0.109 0.7207c-0.23983 0.01441-0.48499 0.11699-0.70085 0.33281-0.49732 0.49728-0.477 1.0758 0.05625 1.609 0.22002 0.22001 0.48745 0.40078 0.5942 0.40078 0.39154 1e-6 0.90934-0.37583 1.0794-0.78281 0.3567-0.85366-0.30951-1.603-1.029-1.5598zm-2.3123 0.11367c0.05973 0 0.09142 0.03644 0.09142 0.11016 0 0.06472-0.11927 0.11674-0.26487 0.11602-0.21408-0.0015-0.23061-0.0238-0.0879-0.11602 0.11406-0.0737 0.20162-0.11016 0.26135-0.11016zm4.6505 0.0023c0.04506-0.01137 0.12765 0.01941 0.24495 0.09375 0.12768 0.08093 0.12493 0.11241-0.01876 0.16758-0.09713 0.03728-0.20574-9e-3 -0.24143-0.10195-0.03639-0.09477-0.02983-0.148 0.01523-0.15937zm3.6355 0.0059-0.19689 0.58242c-0.10854 0.32058-0.22187 0.60742-0.25198 0.6375-0.03011 0.03011-0.23139-0.1261-0.44653-0.34805l-0.39144-0.40312 0.34105-0.08204c0.18721-0.04498 0.47686-0.15062 0.64342-0.23438zm-11.718 0.16172c0.07823-0.03877 0.29773 0.05271 0.75828 0.22266l0.35277 0.13008-0.84266 0.82266-0.18166-0.61992c-0.10192-0.34769-0.16495-0.51671-0.08672-0.55547zm5.8892 0.11953c0.10142 0.01647 0.20199 0.05288 0.293 0.1125 0.34569 0.2265 0.38904 0.8751 0.07618 1.1438-0.32916 0.28266-0.42673 0.30716-0.6985 0.18281-0.35922-0.16434-0.57615-0.7268-0.41606-1.0781 0.12475-0.27378 0.44111-0.41035 0.74538-0.36094zm-9.3431 0.17463c-0.53303-1.8e-4 -0.8307 0.13862-1.3454 0.62578-0.31871 0.30161-0.38207 0.44721-0.38207 0.87891 0 0.94902 0.57265 1.7027 1.4544 1.9125 0.20289 0.0483 0.43887 0.06665 0.52505 0.04101 0.08618-0.02557 0.22846-0.04688 0.31526-0.04688 0.26721 0 0.88038-0.59352 1.0618-1.0277 0.24505-0.58644 0.21338-1.1112-0.09493-1.5727-0.32679-0.48908-0.93514-0.81069-1.5341-0.81094zm18.445 0.0058c-0.67438 0.0071-1.3207 0.37377-1.608 1.023-0.23148 0.52326-0.23293 0.56581-0.04336 1.1672 0.1985 0.62958 0.66497 1.1214 1.1861 1.2504 0.55937 0.13854 1.4122-0.18604 1.806-0.68672 0.6469-0.82236 0.57834-1.7936-0.1676-2.3625-0.35407-0.27004-0.76853-0.39567-1.1732-0.39141zm-18.4 0.34689c0.68269 0 1.404 0.66396 1.404 1.2926 0 0.3516-0.4308 1.1481-0.69851 1.2914-0.30759 0.16462-0.94408 0.15123-1.2986-0.02812-0.69722-0.3528-1.033-1.3856-0.63522-1.9535 0.20876-0.29797 0.82919-0.60234 1.2282-0.60234zm18.377 0.02812c0.36294-0.02759 0.66447 0.09493 1.0196 0.39375 0.29209 0.24574 0.36214 0.39518 0.36214 0.77109 0 0.60138-0.26747 1.1101-0.70202 1.3348-0.72313 0.37391-1.4738 0.15704-1.8283-0.52852-0.41428-0.801-0.07634-1.643 0.76062-1.8938 0.13893-0.04161 0.26695-0.06815 0.38793-0.07735zm-12.738 0.48281c-0.88361 0.01942-1.4699 1.2402-0.69733 1.8902 0.45334 0.38144 1.2575 0.42502 1.5658 0.08438 0.49934-0.5517 0.22891-1.6368-0.47466-1.9043-0.13524-0.05141-0.26756-0.07309-0.39379-0.07032zm7.0987 0.03047c-0.58122 0-1.0993 0.56652-1.0993 1.2023 0 0.54794 0.18535 0.81946 0.64694 0.9457 0.32817 0.08975 0.82822 0.01876 1.1146-0.1582 0.06728-0.04159 0.20517-0.23534 0.30589-0.43008 0.36706-0.70974-0.16086-1.5598-0.96806-1.5598zm5.4087 0.06211c-0.15107 0.01633-0.2835 0.10534-0.45122 0.27305-0.35282 0.3528-0.36595 0.64175-0.0457 1.0488 0.29403 0.37376 0.6732 0.39618 1.0935 0.06563 0.45498-0.35784 0.4369-0.97874-0.03632-1.2234-0.23927-0.12373-0.40914-0.18039-0.56021-0.16406zm-17.892 0.02812c-0.18949-0.03097-0.3966 0.01167-0.59537 0.15938-0.42878 0.31866-0.46536 0.77453-0.09142 1.1484 0.35674 0.35674 0.81077 0.38111 1.131 0.06094 0.52552-0.52549 0.12428-1.2759-0.44418-1.3688zm12.421 0.31289c0.19947-0.01463 0.40541 0.04443 0.54263 0.18164 0.24966 0.2496 0.23351 0.79355-0.03047 1.0324-0.25082 0.22691-0.85089 0.25663-1.0548 0.05273-0.19693-0.19692-0.17588-0.69768 0.04219-1.009 0.10876-0.15526 0.30097-0.24318 0.50044-0.25781zm-6.8901 0.01289c0.13339 0.02199 0.2605 0.08562 0.36332 0.19922 0.25375 0.28032 0.26024 1.0287 0.0094 1.125-0.54515 0.20916-1.2259-0.12851-1.2259-0.6082 0-0.47178 0.45305-0.78197 0.85321-0.71602zm-5.6584 0.10195c0.38506 0 0.56137 0.27274 0.37152 0.57422-0.18149 0.28802-0.46288 0.29154-0.66217 7e-3 -0.24251-0.34619-0.1248-0.58125 0.29065-0.58125zm18.242 0.01992c0.3319 0.04727 0.40877 0.3565 0.15236 0.61289-0.10492 0.10492-0.23637 0.18984-0.29182 0.18984-0.12764 0-0.47114-0.33805-0.47114-0.46406 0-0.18541 0.34473-0.37654 0.61061-0.33867zm-22.791 0.32809 0.07969 0.46055c0.20732 1.1924 1.4086 2.6084 2.5842 3.0469l0.6024 0.225-0.75124 0.35274c-0.41296 0.19416-0.98336 0.58564-1.2681 0.8707-0.53957 0.54018-1.1882 1.7382-1.1884 2.1949-5.4e-5 0.14558-0.04092 0.26484-0.09024 0.26484-0.04927 0-0.90885-0.82048-1.9103-1.8234l-1.8201-1.8234zm27.257 0.08327 1.8435 1.8422 1.8424 1.8433-1.8447 1.8445c-1.818 1.8178-1.8458 1.8398-1.9174 1.5-0.11779-0.55938-0.60632-1.5234-0.99736-1.9688-0.42118-0.47964-1.3307-1.0879-1.799-1.2035-0.17794-0.04395-0.32226-0.11431-0.32112-0.15586 0.0011-0.04152 0.29218-0.20152 0.64694-0.35508 1.1982-0.51864 2.065-1.5365 2.4084-2.8277zm-12.431 0.77578c-0.0091-0.0152-0.22272 0.07781-0.47466 0.20625-0.57888 0.29493-0.88757 0.29347-1.4744-0.0058-0.4426-0.22576-0.47177-0.22728-0.5356-0.0293-0.30177 0.93586-0.60836 1.268-1.2892 1.3957l-0.39613 0.07383 0.23088 0.45352c0.29498 0.57822 0.29348 1.1247-0.0047 1.6137-0.22042 0.36149-0.22141 0.39003-0.02812 0.45117 0.97619 0.30876 1.1806 0.51354 1.4826 1.4777 0.05667 0.18098 0.0983 0.17869 0.5063-0.0293 0.5631-0.28721 0.99198-0.28677 1.5587 0.0023l0.44887 0.22969 0.14298-0.4793c0.18452-0.61586 0.57577-1.002 1.1192-1.1039 0.34016-0.06381 0.41526-0.12112 0.35043-0.27188-0.45868-1.0667-0.46827-1.1522-0.19338-1.718 0.31113-0.64034 0.31152-0.65039 0.0797-0.65039-0.09966 0-0.38497-0.10438-0.63522-0.23203-0.35583-0.1815-0.50043-0.355-0.66335-0.79453-0.11457-0.30911-0.2159-0.57423-0.22502-0.58945zm4.559 0.22148c0.01893 0.0042 0.05069 0.05012 0.10196 0.13828 0.0687 0.11809 0.10252 0.23733 0.07501 0.26484-0.08339 0.08338-0.20777-0.09484-0.20393-0.29297 0.0015-0.0765 8e-3 -0.11434 0.02696-0.11016zm-11.639 0.05273c0.02506-0.01491 0.05261 0.0057 0.08672 0.06094 0.05146 0.08327 0.06824 0.1933 0.03633 0.24492-0.11873 0.1921-0.25526 0.08545-0.19338-0.15117 0.02337-0.08941 0.04527-0.13978 0.07032-0.15469zm6.6803 0.35508c0.13917-0.06183 0.22845 0.01053 0.3387 0.27656 0.16754 0.40446 0.75002 0.9457 1.0185 0.9457 0.13193 0 0.15088 0.06572 0.07852 0.26484-0.1185 0.32598-0.12503 1.2404-0.01172 1.5586 0.06873 0.19304 9e-4 0.27336-0.37621 0.44766-0.3116 0.14402-0.52779 0.35537-0.67155 0.65625l-0.21213 0.44297-0.50864-0.15234c-0.42026-0.12681-0.5873-0.12609-0.96689 0.0047l-0.45943 0.15817-0.21916-0.42539c-0.12843-0.24933-0.41981-0.53863-0.70201-0.69613l-0.48169-0.26836 0.17932-0.43125c0.14341-0.34319 0.1544-0.51931 0.05156-0.8625-0.18259-0.60942-0.17547-0.63232 0.27776-0.84844 0.25357-0.1209 0.49808-0.37152 0.64694-0.66328 0.22907-0.44897 0.25366-0.46323 0.5942-0.34453 0.35727 0.12454 1.0718 0.09314 1.424-0.06328zm-15.306 0.51563c-1.7912 0.0015-2.4468 2.3617-0.91532 3.2953 0.53231 0.32451 1.3537 0.31082 1.8553-0.03046 0.89802-0.61116 1.1438-1.446 0.68093-2.3109-0.33489-0.62588-0.89173-0.9545-1.6209-0.95391zm28.987 0c-1.8318 0.0014-2.5132 2.3469-0.95751 3.2953 1.4852 0.9054 3.3602-0.78453 2.576-2.3215-0.32481-0.63658-0.88513-0.97438-1.6185-0.97383zm-28.972 0.35391c0.54605 5.98e-4 1.1402 0.39527 1.3501 0.89766 0.24603 0.58878 0.02205 1.2852-0.53208 1.657-0.66456 0.44589-1.3916 0.32553-1.9338-0.31875-0.73825-0.87732-0.0596-2.2373 1.1157-2.2359zm28.75 0.02462c0.32426-0.04711 0.67642 0.01755 1.0114 0.24258 0.56912 0.38226 0.78904 1.0483 0.54029 1.6406-0.10353 0.24652-0.35537 0.54272-0.57428 0.67617-0.67141 0.40931-1.3691 0.2824-1.8986-0.34688-0.76971-0.91467-0.05162-2.0712 0.92118-2.2125zm-19.255 0.30703c-0.30475-0.0079-0.60293 0.09837-0.81219 0.32109-0.4142 0.44088-0.39357 1.1584 0.04454 1.5352 0.48653 0.41844 1.1334 0.38663 1.5998-0.07969 0.47662-0.47658 0.48213-0.94761 0.01758-1.4121-0.23426-0.23423-0.54494-0.35654-0.84969-0.36445zm9.8834 0.0293c-0.55118 0.064363-1.0817 0.47776-1.0817 1.05 0 0.28955 0.09689 0.47572 0.37504 0.72422 0.40738 0.36395 1.0908 0.45148 1.4392 0.18399 0.52403-0.40236 0.60596-1.188 0.17228-1.6559-0.23591-0.25454-0.57407-0.34098-0.90478-0.30234zm-19.395 0.11836c-0.10056-0.0032-0.18907 0.03613-0.32933 0.11484-0.17201 0.09653-0.39358 0.31935-0.49224 0.4957-0.1608 0.28744-0.16139 0.35487 0 0.64336 0.09902 0.17701 0.31131 0.38789 0.47114 0.46875 0.37094 0.18766 0.40908 0.18637 0.82391-0.02812 0.65496-0.33864 0.61275-1.2289-0.07384-1.5563-0.18685-0.0891-0.29908-0.13509-0.39965-0.13828zm29.095 0.03633c-0.31609-0.06105-0.43549-0.01456-0.73484 0.28477-0.19674 0.1967-0.35863 0.4554-0.35863 0.57539 0 0.29571 0.32266 0.73593 0.63053 0.86016 0.35177 0.14197 0.3981 0.13786 0.77351-0.05625 0.78402-0.40542 0.58111-1.4918-0.31058-1.6641zm-14.666 0.2039c-0.14396 0.01807-0.27408 0.1112-0.40785 0.28125-0.27015 0.34341-0.21906 0.69308 0.13829 0.94336 0.3307 0.23164 0.50252 0.21822 0.78289-0.06211 0.31223-0.31224 0.29952-0.7651-0.02696-0.99375-0.18556-0.12996-0.34242-0.18682-0.48637-0.16875zm-4.7325 0.01289c0.14183 0.03764 0.28125 0.11766 0.40082 0.24492 0.32768 0.34874 0.32214 0.49585-0.03281 0.85078-0.51437 0.51435-1.2411 0.25218-1.2411-0.44766 0-0.49536 0.44764-0.761 0.87313-0.64805zm9.9959 0.0023c0.14288 0.03092 0.27213 0.1052 0.36097 0.23203 0.24652 0.35191 0.22995 0.63257-0.05274 0.91524-0.12943 0.12941-0.36679 0.23555-0.52857 0.23555-0.3533 0-0.76531-0.38055-0.76531-0.70664 0-0.46847 0.55699-0.76892 0.98564-0.67617zm2.0146 0.08789c0 2.7e-4 0.25545 0.13011 0.56724 0.28828l0.56724 0.28828-1.1345 0.57422v-0.57539zm-14.412 0.0035v0.58711c0 0.32249-0.01428 0.57872-0.03047 0.56953-0.01617-0.0092-0.28946-0.15263-0.60826-0.31758-0.33205-0.1718-0.50869-0.32033-0.41254-0.34805 0.09231-0.02662 0.36677-0.1478 0.60944-0.26953zm-7.3085 0.17344c0.47781 0 0.73136 0.2956 0.52974 0.61758-0.14419 0.23029-0.61054 0.32004-0.84969 0.16406-0.08851-0.05772-0.14034-0.24941-0.11837-0.4418 0.03432-0.30064 0.08573-0.33984 0.43832-0.33984zm28.945 0c0.47781 0 0.73136 0.2956 0.52974 0.61758-0.14419 0.23029-0.61171 0.32004-0.85086 0.16406-0.08852-0.05772-0.13916-0.24941-0.1172-0.4418 0.03433-0.30064 0.08573-0.33984 0.43832-0.33984zm-14.527 0.13711c0.20031-0.07685 0.47252 0.21194 0.36449 0.38672-0.04175 0.06757-0.17911 0.12305-0.30472 0.12305-0.26964 0-0.31767-0.41081-0.05978-0.50977zm9.0665 2.3145c-0.16339 0.0223-0.32779 0.07466-0.49341 0.15586-1.3107 0.6426-1.3786 2.4636-0.11486 3.0891 0.63558 0.3146 1.1992 0.30687 1.7885-0.02343 1.0257-0.57492 1.1364-1.7418 0.24964-2.6285-0.46112-0.46106-0.93965-0.65988-1.4298-0.59297zm-18.306 0.0293c-0.87266 0.08645-1.6326 0.86455-1.6326 1.8902 0 0.57102 0.40921 1.1504 0.99385 1.4051 0.81314 0.35418 1.7694 0.07659 2.2713-0.65859 0.54629-0.80022 0.17543-2.0299-0.74656-2.4762-0.29203-0.14134-0.59514-0.18936-0.88602-0.16055zm15.19 0.16523c0.06471 0 0.11699 0.04051 0.11603 0.08906-9e-4 0.04853-0.05331 0.16779-0.11603 0.26484-0.09224 0.14272-0.11459 0.12499-0.11603-0.08906-9.9e-4 -0.1456 0.05131-0.26484 0.11603-0.26484zm-11.77 0.0047c0.04888-0.01512 0.12048 0.01598 0.1758 0.10547 0.03723 0.06024 0.01913 0.1393-0.03984 0.17578-0.05899 0.03644-0.13752-0.01347-0.17463-0.11016-0.03657-0.0953-0.01021-0.15597 0.03867-0.17109zm2.3416 0.16172c-0.08344 0.0084-0.16666 0.02677-0.24729 0.05742-0.81903 0.3114-1.0549 1.1993-0.47934 1.8 0.33753 0.35228 0.90385 0.44051 1.3372 0.20859 0.28131-0.1506 0.58131-0.71449 0.58131-1.0922 0-0.57394-0.60781-1.0324-1.1919-0.97383zm7.0718 0.02227c-0.39082-0.02062-0.79637 0.13589-0.93876 0.40195-0.21661 0.4047-0.13468 1.0187 0.18752 1.4016 0.6321 0.75114 1.867 0.30757 1.867-0.67031 0-0.54616-0.1948-0.8235-0.73952-1.0512-0.11665-0.04876-0.24594-0.07516-0.37621-0.08204zm-12.679 0.05038c0.29262-0.01158 0.58618 0.04797 0.77703 0.18164 0.29194 0.20442 0.61178 0.87676 0.61178 1.2844 0 0.36324-0.43109 0.87966-0.89774 1.0746-0.21355 0.08921-0.45614 0.1552-0.53912 0.14648-1.4511-0.15408-1.8647-1.5484-0.72546-2.4445 0.18908-0.1487 0.48089-0.231 0.77351-0.24258zm18.015 0.01173c0.5651-0.10134 1.2847 0.17386 1.5505 0.68789 0.4165 0.80532 0.13998 1.5659-0.6821 1.8773-0.42634 0.16153-0.64322 0.15308-1.0946-0.04336-0.88621-0.38568-1.0247-1.5821-0.26487-2.2898 0.13129-0.1223 0.3027-0.19825 0.49106-0.23203zm-5.3865 0.33867c0.66954 0 1.0216 0.7851 0.54497 1.2164-0.46246 0.4185-1.1966 0.04764-1.1966-0.60469 0-0.42875 0.19438-0.61172 0.65163-0.61172zm-6.7929 0.02227c0.41178 0.03422 0.43589 0.05963 0.47114 0.48867 0.02504 0.30475-0.02894 0.52557-0.16525 0.67617-0.27885 0.30805-0.81323 0.28894-1.0419-0.0375-0.40636-0.58009-0.0083-1.1892 0.73601-1.1273zm12.367 0.09492c-0.83653 0-1.078 1.2161-0.30354 1.5281 0.38736 0.15605 0.49201 0.14026 0.82977-0.12539 0.1936-0.15227 0.3094-0.35882 0.3094-0.55078 0-0.41233-0.43119-0.85195-0.83563-0.85195zm-17.969 0.0023c-0.22253-0.01031-0.46471 0.07795-0.67272 0.28594-0.46186 0.46188-0.32454 1.0488 0.29886 1.2738 0.4698 0.16956 1.0595-0.26251 1.0595-0.77695 0-0.47334-0.31473-0.76562-0.68561-0.78281zm17.903 0.35039c0.27227 0 0.57484 0.30654 0.53091 0.53789-0.05401 0.28444-0.59164 0.3676-0.79461 0.12305-0.16928-0.20396 0.0127-0.66094 0.2637-0.66094zm-18.059 0.0211c0.06561-0.02214 0.12872-0.0028 0.21564 0.05038 0.1173 0.07175 0.2133 0.25779 0.2133 0.4125 0 0.21497-0.07105 0.28939-0.30355 0.31641-0.4623 0.05373-0.63708-0.23246-0.35277-0.57891 0.09363-0.11409 0.16176-0.17825 0.22737-0.20039zm9.0349 0.46992c-0.19601 0.02552-0.3896 0.1505-0.61881 0.37969-0.29702 0.29698-0.39965 0.50184-0.39965 0.79688 0 0.45586 0.26317 0.8917 0.62936 1.0395 1.2762 0.51498 2.1486-1.1954 1.0196-1.9992-0.23672-0.16853-0.43452-0.24231-0.63053-0.2168zm0.05625 0.35976c0.08119 0.0051 0.16435 0.06098 0.31409 0.17226 0.34522 0.25656 0.48733 0.87759 0.26252 1.1484-0.29271 0.35263-0.94343 0.2548-1.2165-0.18281-0.17294-0.27714-0.0038-0.78187 0.33753-1.0055 0.14133-0.0926 0.22118-0.13764 0.30237-0.13242zm-5.4873 0.50156 0.84618 0.87187-0.36449 0.07852c-0.20063 0.04315-0.52312 0.15972-0.71726 0.25898-0.28036 0.14321-0.32465 0.14647-0.21682 0.01524 0.07467-0.09084 0.20706-0.40374 0.29417-0.69492zm10.938 0.1207c0.06604-0.02383 0.09426 0.02309 0.12658 0.12539 0.03915 0.12395 0.14865 0.40397 0.24377 0.62227 0.16986 0.38976 0.16879 0.57132-0.0023 0.39726-0.04774-0.04853-0.32378-0.16909-0.61295-0.26719l-0.52505-0.17812 0.41254-0.39961c0.18736-0.18158 0.29142-0.27617 0.35746-0.3zm-7.85 0.93518c0.0364 0.0094 0.06977 0.03293 0.09141 0.06798 0.10807 0.17486 0.02239 0.2374-0.16642 0.1207-0.10115-0.06253-0.11304-0.12341-0.03399-0.17227 0.03357-0.02073 0.07259-0.02583 0.109-0.01641zm4.9317 0.02696c0.14367 0.05511 0.14758 0.08666 0.01993 0.16758-0.23459 0.14866-0.33412 0.12395-0.26135-0.06563 0.03568-0.09297 0.14429-0.13926 0.24143-0.10195zm-14.715 1.3301c0.03856 0 0.21132 0.10059 0.38441 0.22383 0.92631 0.65949 2.7768 0.78468 3.9402 0.26719 0.5088-0.22628 0.56097-0.23154 0.48169-0.04922-0.76614 1.7619-0.70958 2.7092 0.27542 4.6465 0.02466 0.04849-1.1247 0.08788-2.5538 0.08788h-2.5983v-2.5887c0-1.4235 0.03178-2.5875 0.07032-2.5875zm24.431 0.01875c0.04935-0.02154 0.08907 1.1305 0.08907 2.5594v2.598h-5.2716l0.34339-0.63398c0.6623-1.2227 0.69272-2.6831 0.08204-3.8801-0.2224-0.43587-0.22267-0.45605-0.01758-0.37031 1.2133 0.50677 1.416 0.55253 2.3346 0.51328 0.75973-0.03244 1.0769-0.1089 1.6455-0.39375 0.38745-0.19412 0.74528-0.37104 0.79461-0.39258zm-12.817 0.09844h0.56959c0.31367 0 0.57103 0.01314 0.57076 0.0293-2.7e-4 0.01617-0.12786 0.27893-0.28245 0.58359l-0.28128 0.5543zm4.4969 0.23789c-0.55025 0.0033-1.322 0.41246-1.5927 0.84375-0.50075 0.79776-0.1264 2.0629 0.73601 2.4879 0.88928 0.4383 1.8647 0.14712 2.2537-0.67266 0.55745-1.1747-0.22576-2.666-1.397-2.659zm-7.6765 0.0293c-0.45496-0.03214-0.8706 0.12052-1.1989 0.44883-0.74099 0.74094-0.75954 1.7951-0.0457 2.5852 0.37984 0.42041 0.47329 0.46406 0.99971 0.46406 0.6768 0 1.1287-0.20526 1.5447-0.69961 0.81404-0.96732 0.40434-2.2963-0.83328-2.7047-0.1585-0.0523-0.3148-0.08303-0.46645-0.09375zm7.5078 0.35742c0.13725-0.01679 0.26673 0.0087 0.46059 0.0668 0.48027 0.14388 0.78964 0.51181 0.90126 1.0699 0.09493 0.47454-0.01793 0.85913-0.37972 1.2891-0.23822 0.28312-0.39913 0.36128-0.73601 0.36094-0.53837-5.4e-4 -1.1269-0.35098-1.3654-0.81211-0.38482-0.74412-0.15477-1.419 0.61061-1.7895 0.22615-0.10945 0.37139-0.16836 0.50864-0.18516zm-7.8816 0.01992c0.52853-0.11604 1.3736 0.31655 1.5787 0.80742 0.27495 0.65802-0.03657 1.4587-0.68913 1.7684-0.84656 0.4017-1.484 0.15837-1.7697-0.67617-0.28329-0.8274 0.13777-1.7366 0.88016-1.8996zm0.26721 0.41602c-0.14644 0.01948-0.28989 0.08132-0.41371 0.19336-0.27202 0.24618-0.28425 0.94558-0.02109 1.2363 0.439 0.4851 1.3349 0.03715 1.3349-0.66797 0-0.4967-0.46077-0.82018-0.90009-0.76172zm7.6742 0.01992c-0.23368-0.02221-0.47622 0.04729-0.65163 0.23555-0.3207 0.34416-0.30236 0.75 0.04923 1.1016 0.15884 0.15882 0.42012 0.28828 0.58013 0.28828 0.33927 0 0.7782-0.49374 0.7782-0.87539 0-0.42044-0.36647-0.71299-0.75593-0.75zm6.4858 0.17227c-1.723-0.07699-2.5926 2.2292-1.0407 3.2836 0.58596 0.3981 1.4452 0.39691 2.0346-0.0035 0.53623-0.36438 0.86876-1.1491 0.75124-1.7754-0.10951-0.5838-0.81985-1.3288-1.3888-1.4566-0.12198-0.0274-0.24142-0.04291-0.35628-0.04804zm-20.499 0.0023c-0.98884 0-1.7156 0.69442-1.7908 1.7109-0.05413 0.73218 0.20746 1.2501 0.81922 1.623 0.74431 0.45383 1.7534 0.25567 2.358-0.46289 0.45394-0.53946 0.51886-1.1896 0.184-1.8621-0.33021-0.66322-0.86828-1.009-1.5705-1.009zm13.947 0.16524c0.13587 5.27e-4 0.27208 0.0766 0.35277 0.22734 0.08947 0.16718 0.08947 0.30273 0 0.46992-0.15904 0.29708-0.2926 0.29689-0.59186-0.0023-0.18906-0.18902-0.21257-0.28635-0.11368-0.47109 0.08036-0.15009 0.2169-0.22436 0.35277-0.22383zm-7.4597 0.01641c0.04697 0.0057 0.09646 0.02314 0.14533 0.05391 0.27144 0.17091 0.30159 0.44492 0.07501 0.67148-0.22786 0.2278-0.31578 0.2362-0.50278 0.04922-0.29492-0.29489-0.04635-0.81414 0.28245-0.77461zm-6.4706 0.21094c0.45398 0 0.59831 0.06154 0.93642 0.39961 0.32641 0.32637 0.40082 0.48995 0.40082 0.88828 0 0.6222-0.26248 1.1298-0.70202 1.357-1.5261 0.78912-2.8731-1.1527-1.5845-2.284 0.33159-0.2911 0.5173-0.36094 0.94931-0.36094zm20.6 0.0082c0.16144 0.02409 0.32702 0.07629 0.49224 0.16172 0.78076 0.40368 0.98142 1.531 0.39027 2.1926-0.25052 0.2803-0.45103 0.3785-0.85321 0.41836-0.636 0.06306-1.0139-0.11677-1.3759-0.65391-0.71785-1.0651 0.21655-2.2874 1.3466-2.1188zm-20.601 0.47461c-0.20182-0.0022-0.41035 0.08522-0.61647 0.2625-0.22888 0.19688-0.31995 0.38683-0.31995 0.66562 0 0.27882 0.09107 0.46878 0.31995 0.66563 0.41206 0.35447 0.67385 0.34742 1.1216-0.0293 0.45649-0.38406 0.48516-0.87779 0.07384-1.2891-0.18158-0.18154-0.37715-0.27316-0.57896-0.27539zm20.334 0.0293c-0.09303 0.0094-0.18858 0.03418-0.28714 0.075-0.45861 0.18996-0.66124 0.7-0.45239 1.1355 0.08674 0.18088 0.28944 0.39709 0.45122 0.48047 0.85456 0.44052 1.714-0.65007 1.063-1.3488-0.23969-0.25724-0.4956-0.37037-0.77468-0.34219zm0.11251 0.36797c0.05854 0.0058 0.11842 0.02367 0.17931 0.05626 0.29547 0.1581 0.41907 0.55776 0.23908 0.77461-0.17192 0.20714-0.60226 0.22283-0.79578 0.0293-0.34522-0.34516-0.03243-0.90108 0.37738-0.86016zm-20.552 0.0047c0.1042-0.02976 0.21825-0.02757 0.33285 0.01641 0.2333 0.08952 0.32054 0.46363 0.17228 0.74062-0.15464 0.28886-0.79734 0.33406-0.90126 0.06328-0.1378-0.3591 0.08353-0.73104 0.39613-0.82031zm10.316 0.6457 0.21916 0.58594c0.4489 1.2032 2.162 2.5884 3.2019 2.5887 0.32673 6e-5 0.21967 0.13408-1.5271 1.8832-1.0339 1.0352-1.9081 1.882-1.942 1.882-0.08701 0-3.6472-3.5759-3.6472-3.6633 0-0.03951 0.2169-0.10652 0.48169-0.14883 1.125-0.17982 2.3167-1.1737 2.8808-2.4023zm0.09493 2.291c-0.45125-0.02307-0.92078 0.13839-1.3161 0.51445-0.97306 0.92556-0.71453 2.4103 0.51685 2.9695 0.56286 0.25563 0.59347 0.25893 1.1204 0.10781 0.85413-0.24492 1.5337-1.2971 1.3478-2.0859-0.21625-0.91755-0.91682-1.4674-1.6689-1.5059zm-0.07618 0.40078c0.31603 0.0047 0.63042 0.11358 0.88368 0.33984 0.69642 0.6222 0.56418 1.902-0.24026 2.318-1.2296 0.63582-2.5359-0.62129-1.9432-1.8703 0.24377-0.51363 0.77303-0.79541 1.2997-0.7875zm-0.13478 0.50508c-0.40429 0.04875-0.75593 0.399-0.75593 0.91875 0 0.34978 0.07145 0.50918 0.31058 0.69726v0.0012c0.4165 0.32756 0.77166 0.30654 1.145-0.0668 0.39897-0.39888 0.40699-0.89735 0.02109-1.2832-0.21627-0.21627-0.4782-0.29643-0.72077-0.26719zm0.19924 0.35039c0.07395 0.01861 0.13783 0.0832 0.23557 0.20391 0.27867 0.34409 0.27682 0.4275-0.01407 0.71836-0.2837 0.28372-0.39654 0.29256-0.63873 0.05038-0.29378-0.29376-0.23295-0.74015 0.12306-0.90234 0.1359-0.06191 0.22022-0.08892 0.29417-0.07032z" fill="#e50" stroke-width=".60003"/><path d="m26.704 40v15.802l3.0757-0.02842c2.9262-0.02713 3.0998-0.0368 3.5896-0.19972 0.64449-0.21434 1.219-0.70858 1.4833-1.2759 0.34883-0.74891 0.40023-1.1368 0.39944-2.9943-0.0011-2.3694-0.16202-2.9363-0.984-3.4552l-0.31572-0.19895 0.34798-0.32032c0.65117-0.59793 0.78936-1.131 0.78429-3.0281-0.0041-1.5385-0.12301-2.2171-0.51236-2.9282-0.29804-0.5444-0.69687-0.88425-1.3473-1.1461-0.43778-0.17622-0.51281-0.18011-3.4844-0.20356zm-12.92 0.0077-0.0038 5.745c-0.0018 3.1597-0.03325 5.9-0.0699 6.0899-0.09384 0.48647-0.29046 0.62221-0.90258 0.62221-0.382 0-0.52738-0.03345-0.64064-0.14672-0.20996-0.20996-0.31725-0.81716-0.31725-1.7914v-0.84724h-3.0027l-0.05454 0.88184c-0.08951 1.4327 0.08391 3.0064 0.41634 3.777 0.33587 0.77857 1.0888 1.356 2.0525 1.574 0.33524 0.07581 0.88651 0.09974 1.9035 0.08218 1.2128-0.02094 1.5095-0.05093 1.9457-0.19281 0.92924-0.30225 1.54-1.0445 1.8021-2.1915 0.23432-1.0253 0.28681-2.2768 0.32954-7.8966l0.04302-5.7059zm4.642 0v7.8406c0 4.3122 0.02311 7.8629 0.05146 7.8913 0.02835 0.02837 1.6127 0.05224 3.5205 0.05224h3.469v-3.5566l-3.6756-0.04147-0.04149-2.9013h3.6395v-3.1694l-3.598-0.04147-0.02073-1.3735-0.02151-1.3735h3.7179v-3.3269zm17.872 0v15.783h6.9633v-3.5589h-3.6364v-2.9397h3.6364v-3.1725h-3.6364v-2.7853h3.6364v-3.3269zm8.2792 0v15.783h6.6538v-3.5588h-3.3269v-12.224zm-14.546 3.1725h0.58533c0.32195 0 0.65536 0.03775 0.74127 0.08373 0.2754 0.14737 0.37525 0.5414 0.37486 1.4802-3.93e-4 0.99083-0.0852 1.3964-0.32877 1.567-0.1165 0.0816-0.35642 0.1183-0.77123 0.1183h-0.60146zm0 5.9578h0.69057c1.0135 0 1.1064 0.12796 1.1522 1.597 0.03846 1.2325-0.03764 1.5395-0.41788 1.6984-0.14497 0.06057-0.51678 0.10831-0.8419 0.10831h-0.58303z" fill="#e50" stroke-width=".3933"/></svg>
